<svg width="346" height="198" viewBox="0 0 346 198" fill="none" xmlns="http://www.w3.org/2000/svg">
<mask id="mask0_0_48" style="mask-type:luminance" maskUnits="userSpaceOnUse" x="0" y="0" width="346" height="198">
<path d="M0 0H345.839V197.614H0V0Z" fill="white"/>
</mask>
<g mask="url(#mask0_0_48)">
<path d="M318.518 143.289C321.294 144.85 323.316 148.241 323.316 152.923C323.316 159.654 319.542 163.679 313.317 163.679C307.09 163.679 303.317 159.654 303.317 152.971C303.317 148.777 305.041 145.899 307.064 144.192L308.95 146.582C307.064 148.094 306.147 150.094 306.147 152.948C306.147 157.752 308.573 160.703 313.317 160.703C318.059 160.703 320.487 157.704 320.487 152.8C320.487 149.801 319.624 147.362 317.467 146.119H315.31V153.24H312.534V143.289H318.518Z" fill="#C3996B"/>
<path d="M313.128 123.529C313.128 121.091 312.265 119.432 309.92 119.432C307.575 119.432 306.712 121.091 306.712 123.529V132.041H313.128V123.529ZM322.751 119.529L315.904 124.821V132.018H322.751V134.944H303.883V123.334C303.883 119.358 305.985 116.431 309.894 116.431C313.155 116.431 315.15 118.481 315.742 121.456L322.751 115.92V119.529Z" fill="#C3996B"/>
<path d="M313.317 91.0381C308.735 91.0381 306.173 94.0136 306.173 98.6483C306.173 103.282 308.735 106.282 313.317 106.282C317.898 106.282 320.459 103.307 320.459 98.6483C320.459 94.0136 317.898 91.0381 313.317 91.0381ZM313.317 109.257C307.09 109.257 303.317 105.209 303.317 98.6483C303.317 92.0867 307.09 88.0376 313.317 88.0376C319.543 88.0376 323.316 92.0867 323.316 98.6483C323.316 105.209 319.543 109.257 313.317 109.257Z" fill="#C3996B"/>
<path d="M303.883 61.4253H313.856C319.435 61.4253 323.316 64.6688 323.316 70.7182C323.316 76.743 319.435 79.9865 313.856 79.9865H303.883V77.0592H313.64C317.871 77.0592 320.432 74.791 320.432 70.7182C320.432 66.6208 317.871 64.3516 313.64 64.3516H303.883V61.4253Z" fill="#C3996B"/>
<path d="M310.082 36.7642C307.655 36.7642 306.712 38.3988 306.712 40.91V49.276H313.451V40.91C313.451 38.3988 312.48 36.7642 310.082 36.7642ZM310.055 33.7637C314.017 33.7637 316.227 36.52 316.227 40.6659V49.276H322.749V52.2033H303.883V40.6659C303.883 36.52 306.12 33.7637 310.055 33.7637Z" fill="#C3996B"/>
<path d="M136.259 113.046C136.259 114.939 134.199 116.291 130.456 116.291C127.879 116.291 125.599 115.607 123.885 114.271L125.065 113.061C126.559 114.271 128.319 114.81 130.537 114.81C132.988 114.81 134.341 114.227 134.341 113.188C134.341 112.165 132.957 111.894 130.191 111.681C127.155 111.453 124.295 110.842 124.295 108.807C124.295 106.829 126.826 105.734 129.985 105.734C132.375 105.734 134.403 106.374 135.724 107.384L134.53 108.551C133.397 107.654 131.84 107.228 130.017 107.213C128.273 107.199 126.198 107.583 126.198 108.693C126.198 109.746 128.036 109.931 130.441 110.102C133.868 110.344 136.259 110.97 136.259 113.046Z" fill="#C3996B"/>
<path d="M138.431 106.033H140.317V115.992H138.431V106.033Z" fill="#C3996B"/>
<path d="M155.569 106.033V115.992H153.902L145.302 108.139V115.992H143.479V106.033H145.491L153.73 113.586V106.033H155.569Z" fill="#C3996B"/>
<path d="M168.761 113.018L170.506 113.802C169.468 115.253 167.456 116.291 164.674 116.291C160.555 116.291 157.961 114.285 157.961 111.013C157.961 107.74 160.555 105.735 164.751 105.735C167.456 105.735 169.468 106.787 170.49 108.21L168.73 109.007C167.913 107.784 166.512 107.242 164.721 107.242C161.812 107.242 159.879 108.523 159.879 111.013C159.879 113.502 161.812 114.782 164.721 114.782C166.512 114.782 167.928 114.256 168.761 113.018Z" fill="#C3996B"/>
<path d="M183.527 114.498V115.992H172.568V106.033H183.37V107.527H174.44V110.187H181.955V111.681H174.44V114.498H183.527Z" fill="#C3996B"/>
<path d="M195.272 105.749C197.85 105.749 200.476 106.759 200.476 108.764C200.476 110.472 198.667 111.354 196.105 112.122C193.842 112.834 192.144 113.616 191.766 114.57H200.728V115.993H189.424V115.21C189.77 113.431 191.798 111.895 195.036 110.885C197.064 110.244 198.558 109.776 198.558 108.793C198.558 107.683 196.891 107.157 195.209 107.157C193.433 107.157 192.034 107.811 190.948 109.063L189.706 108.182C190.681 106.802 192.741 105.749 195.272 105.749Z" fill="#C3996B"/>
<path d="M213.465 111.013C213.465 108.523 211.689 107.242 208.859 107.242C206.013 107.242 204.252 108.523 204.252 111.013C204.252 113.502 206.013 114.783 208.859 114.783C211.689 114.783 213.465 113.502 213.465 111.013ZM202.334 111.013C202.334 107.74 204.77 105.735 208.859 105.735C212.962 105.735 215.383 107.74 215.383 111.013C215.383 114.286 212.962 116.291 208.859 116.291C204.77 116.291 202.334 114.286 202.334 111.013Z" fill="#C3996B"/>
<path d="M228.152 111.013C228.152 108.523 226.375 107.242 223.545 107.242C220.7 107.242 218.939 108.523 218.939 111.013C218.939 113.502 220.7 114.783 223.545 114.783C226.375 114.783 228.152 113.502 228.152 111.013ZM217.021 111.013C217.021 107.74 219.458 105.735 223.545 105.735C227.649 105.735 230.07 107.74 230.07 111.013C230.07 114.286 227.649 116.291 223.545 116.291C219.458 116.291 217.021 114.286 217.021 111.013Z" fill="#C3996B"/>
<path d="M237.367 114.868C239.238 114.868 240.951 114.342 240.951 113.088C240.951 111.823 239.268 111.482 237.004 111.482H235.481V110.144H237.004C238.892 110.144 240.59 109.703 240.59 108.65C240.59 107.597 238.86 107.157 237.289 107.157C235.182 107.157 233.829 107.812 233.043 108.821L231.581 108.01C232.713 106.602 234.584 105.748 237.193 105.748C240.023 105.748 242.524 106.702 242.524 108.494C242.524 109.774 241.219 110.642 239.835 110.77C241.235 110.941 242.948 111.61 242.948 113.217C242.948 115.166 240.465 116.276 237.367 116.276C234.568 116.276 232.493 115.323 231.299 113.872L232.871 113.088C233.673 114.213 235.307 114.868 237.367 114.868Z" fill="#C3996B"/>
<path d="M31.5154 166.369V38.765L39.0039 30.6895V158.293L31.5154 166.369Z" fill="#C3996B"/>
<path d="M232.55 56.6552C212.571 56.6552 194.887 65.5116 184.011 79.1193V43.1035H271.193L277.477 36.3281H176.522V93.9231H183.59C191.128 76.0951 210.2 63.4317 232.55 63.4317C261.498 63.4317 284.965 84.6667 284.965 110.862C284.965 137.058 261.498 158.294 232.55 158.294C210.2 158.294 191.128 145.629 183.59 127.801H175.647C183.509 149.441 206.006 165.069 232.55 165.069C265.633 165.069 292.452 140.8 292.452 110.862C292.452 80.9249 265.633 56.6552 232.55 56.6552Z" fill="#C3996B"/>
<path d="M172.553 138.375H157.67V127.802H150.183V138.375H67.3133L157.67 40.9303V30.3887L51.2358 145.151H150.183V161.681H157.67V145.151H165.857L172.553 138.375Z" fill="#C3996B"/>
</g>
</svg>
