<svg width="298" height="316" viewBox="0 0 298 316" fill="none" xmlns="http://www.w3.org/2000/svg">
<rect width="298" height="316" fill="white"/>
<path fill-rule="evenodd" clip-rule="evenodd" d="M51.1565 152.97C51.1565 153.437 51.3079 153.77 51.3079 154.036C51.3076 154.303 51.082 154.438 50.7072 154.57C47.6738 155.937 44.4891 156.705 39.7318 156.705C35.836 156.703 31.4543 155.604 28.868 152.904C26.583 150.603 25.4218 147.769 25.4218 143.735C25.4218 140.701 27.0341 137.465 29.767 135.366C32.5017 133.232 35.8737 132.098 40.368 132.098C44.1523 132.098 46.9627 133.032 48.1996 133.732C48.6489 133.966 48.9107 133.9 49.134 133.632L49.5084 133.099C49.6967 132.866 49.7724 132.766 49.9961 132.766C50.41 132.766 50.5219 132.999 50.5219 133.366L51.0816 140.233C51.1204 140.635 51.0816 140.8 50.9324 140.835L49.8831 141.035C49.6587 141.068 49.5468 141.002 49.4338 140.701C48.8357 139.068 47.6369 136.933 46.025 135.634C44.564 134.4 42.6545 133.566 40.1066 133.566C38.0837 133.566 36.2107 134.133 34.4496 136.066C32.7265 137.899 31.4535 140.667 31.4535 143.668C31.4535 147.603 32.6889 151.037 34.7118 152.836C36.4714 154.404 37.8962 155.103 40.4441 155.103C42.3909 155.103 43.4405 154.97 44.6766 154.438C45.463 154.103 45.5376 153.035 45.5376 151.302V148.903C45.5376 147.702 45.1632 147.368 44.2266 147.368H42.6541C42.4285 147.368 42.3905 147.235 42.3905 147.069V146.234C42.3905 146.103 42.4285 146.002 42.6541 146.002C42.9908 146.001 44.8261 146.103 48.1988 146.103C51.6435 146.103 53.0291 146.002 53.3297 146.002C53.6295 146.001 53.6683 146.103 53.6683 146.269V147.101C53.6683 147.301 53.6295 147.368 53.4039 147.368H52.3188C51.6435 147.368 51.1558 147.603 51.1558 148.57V152.97H51.1565Z" fill="#1A1A18"/>
<path fill-rule="evenodd" clip-rule="evenodd" d="M76.8972 145.683C76.5691 144.641 74.4168 137.339 74.1603 136.471C74.0136 135.948 73.9413 135.706 73.7593 135.706C73.541 135.705 73.4306 135.845 73.3208 136.159C73.1385 136.611 70.0003 144.814 69.7079 145.683H76.8972ZM69.2327 147.073C68.9425 147.804 67.1541 152.566 67.1541 153.68C67.1541 154.444 67.4818 155.278 68.5767 155.278H69.8524C70.2197 155.278 70.2549 155.418 70.2549 155.557V156.322C70.2549 156.6 70.2197 156.705 69.9269 156.705C69.4521 156.705 67.9562 156.599 64.9629 156.599C62.2988 156.599 61.4963 156.705 60.9849 156.705C60.7655 156.705 60.7299 156.495 60.7299 156.251V155.591C60.7299 155.382 60.7655 155.278 60.9849 155.278H61.9337C62.8103 155.278 63.6857 154.793 64.4166 153.748C64.9262 153.018 67.5174 146.969 68.7223 143.909C69.0144 143.215 71.9695 135.739 72.3001 134.801C72.4072 134.452 72.5907 134.001 72.3346 133.619C72.2253 133.481 72.0799 133.306 72.0799 133.168C72.0799 133.063 72.153 132.923 72.445 132.854C73.6129 132.611 75.9828 131.707 76.5328 131.115C76.7144 130.942 76.8234 130.803 77.0061 130.803C77.2255 130.803 77.2975 131.013 77.4068 131.394C78.101 133.585 80.9479 141.372 81.6413 143.598C82.4805 146.309 84.8526 152.776 85.3644 153.715C85.9838 154.861 86.9326 155.279 87.4808 155.279H88.7213C88.9411 155.279 88.9763 155.419 88.9763 155.591V156.251C88.9763 156.46 88.9411 156.705 88.6486 156.705C87.9559 156.705 87.1883 156.6 82.5172 156.6C79.4868 156.6 78.2111 156.705 77.4816 156.705C77.1162 156.705 77.0791 156.495 77.0791 156.251V155.591C77.0791 155.419 77.1162 155.279 77.2986 155.279H78.3197C79.3074 155.279 79.6354 154.93 79.4156 154.026C79.088 152.776 77.6644 148.326 77.227 147.074H69.2327V147.073Z" fill="#1A1A18"/>
<path fill-rule="evenodd" clip-rule="evenodd" d="M105.715 133.581C105.184 133.581 104.58 133.615 103.598 134.22C102.804 134.694 99.5531 137.963 98.7584 138.874C98.6444 139.04 98.4574 139.141 98.305 139.074L97.6623 138.772C97.549 138.738 97.5122 138.637 97.549 138.469L99.9309 132.469C100.045 132.164 100.271 132.098 100.46 132.098C100.724 132.098 101.026 132.13 101.33 132.164C103.106 132.367 108.436 132.367 111.574 132.367C113.879 132.367 115.845 132.3 117.281 132.267C118.566 132.199 119.776 132.164 120.04 132.164C120.647 132.164 120.911 132.603 120.572 132.974C120.269 133.276 103.711 153.975 102.953 154.885H112.065C113.123 154.885 113.918 154.885 114.863 154.515C115.959 154.076 119.663 150.604 120.194 150.03C120.344 149.897 120.496 149.863 120.683 149.93L121.328 150.233C121.442 150.3 121.517 150.367 121.404 150.538C120.873 151.311 119.06 155.458 118.53 156.367C118.453 156.537 118.228 156.705 118.039 156.705C117.886 156.705 117.585 156.671 117.093 156.605C115.014 156.367 109.003 156.233 105.6 156.233H96.7562C96.4522 156.233 96.0379 156.233 96.0379 155.964C96.0379 155.762 96.0748 155.491 96.2245 155.289C97.7759 153.165 113.312 133.985 113.578 133.581H105.715Z" fill="#1A1A18"/>
<path fill-rule="evenodd" clip-rule="evenodd" d="M138.31 143.401C139.936 143.401 141.491 143.297 141.914 143.194C142.515 143.058 143.011 142.746 143.542 142.125C143.93 141.61 144.353 140.645 144.353 139.989C144.353 139.748 144.46 139.68 144.636 139.68L145.591 139.784C145.767 139.818 145.909 139.852 145.874 140.058C145.767 140.645 145.767 142.436 145.767 143.643C145.767 145.192 145.909 146.849 145.98 147.571C146.014 147.778 145.873 147.813 145.697 147.848L144.849 148.02C144.707 148.054 144.636 147.985 144.566 147.745C144.423 147.192 144.07 146.399 143.859 145.987C143.47 145.331 142.622 144.884 141.914 144.779C140.96 144.643 139.865 144.573 138.31 144.573V146.641C138.31 148.501 138.488 151.844 138.488 152.465C138.488 154.255 138.876 154.877 139.336 155.084C139.865 155.291 140.536 155.394 142.302 155.394C142.905 155.394 144.389 155.359 145.131 155.291C145.838 155.223 146.899 154.877 147.819 154.154C148.736 153.43 150.715 151.293 151.422 150.465C151.563 150.329 151.669 150.293 151.775 150.363L152.377 150.708C152.518 150.777 152.553 150.88 152.518 150.983L150.928 156.187C150.822 156.497 150.574 156.705 150.151 156.705C149.973 156.705 149.196 156.669 146.933 156.635C144.636 156.635 140.89 156.6 134.775 156.6C133.467 156.6 132.477 156.635 131.769 156.635C131.028 156.669 130.568 156.705 130.251 156.705C130.004 156.705 129.934 156.6 129.934 156.325V155.601C129.934 155.394 130.038 155.291 130.285 155.291H131.346C132.971 155.291 133.114 155.051 133.114 153.846V142.299C133.114 139.438 133.043 135.2 133.007 134.854C132.865 133.752 132.512 133.51 131.558 133.51H130.18C130.038 133.51 130.004 133.409 130.004 133.167V132.34C130.004 132.235 130.038 132.098 130.251 132.098C131.028 132.098 132.265 132.201 135.481 132.201L147.888 132.165C148.453 132.165 149.126 132.098 149.3 132.098C149.477 132.098 149.548 132.165 149.584 132.27C149.725 132.754 150.892 137.474 151.034 137.818C151.105 137.992 151.105 138.06 150.928 138.162L150.361 138.44C150.22 138.509 150.044 138.474 149.938 138.302C149.76 138.026 146.581 134.924 145.767 134.443C145.024 133.995 144.035 133.547 143.082 133.511L138.416 133.374L138.31 143.401Z" fill="#1A1A18"/>
<path fill-rule="evenodd" clip-rule="evenodd" d="M171.062 145.815C171.062 146.4 171.062 153.844 171.172 155.224H173.279C175.016 155.224 176.678 155.224 178.674 155.05C180.67 154.878 183.182 150.743 183.734 149.467C183.846 149.261 183.957 149.157 184.18 149.261L184.918 149.536C185.029 149.605 185.029 149.64 184.993 149.846C184.881 150.087 183.402 155.774 183.182 156.705C182.221 156.635 171.58 156.601 168.181 156.601C164.523 156.601 163.194 156.705 162.712 156.705C162.454 156.705 162.417 156.635 162.417 156.394V155.532C162.417 155.36 162.454 155.292 162.675 155.292H163.821C165.188 155.292 165.409 154.809 165.409 154.429C165.409 153.774 165.52 145.194 165.52 143.091V141.163C165.52 138.957 165.446 135.304 165.409 134.752C165.335 133.856 165.151 133.512 164.301 133.512H162.933C162.712 133.512 162.675 133.34 162.675 133.168V132.34C162.675 132.168 162.712 132.098 162.933 132.098C163.34 132.098 164.669 132.202 168.033 132.202C172.355 132.202 173.908 132.098 174.24 132.098C174.535 132.098 174.572 132.202 174.572 132.444V133.236C174.572 133.408 174.499 133.512 174.202 133.512H172.465C171.32 133.512 171.172 133.857 171.172 134.788C171.172 135.235 171.061 140.439 171.061 142.851V145.815H171.062Z" fill="#1A1A18"/>
<path fill-rule="evenodd" clip-rule="evenodd" d="M200.721 145.815C200.721 146.4 200.721 153.844 200.833 155.224H202.938C204.676 155.224 206.338 155.224 208.334 155.05C210.329 154.878 212.842 150.743 213.395 149.467C213.506 149.261 213.618 149.157 213.839 149.261L214.577 149.536C214.688 149.605 214.688 149.64 214.65 149.846C214.54 150.087 213.063 155.774 212.842 156.705C211.881 156.635 201.239 156.601 197.84 156.601C194.182 156.601 192.85 156.705 192.371 156.705C192.112 156.705 192.076 156.635 192.076 156.394V155.532C192.076 155.36 192.112 155.292 192.333 155.292H193.479C194.847 155.292 195.067 154.809 195.067 154.429C195.067 153.774 195.179 145.194 195.179 143.091V141.163C195.179 138.957 195.106 135.304 195.067 134.752C194.994 133.856 194.811 133.512 193.958 133.512H192.591C192.37 133.512 192.333 133.34 192.333 133.168V132.34C192.333 132.168 192.37 132.098 192.591 132.098C192.998 132.098 194.327 132.202 197.693 132.202C202.014 132.202 203.567 132.098 203.899 132.098C204.195 132.098 204.231 132.202 204.231 132.444V133.236C204.231 133.408 204.157 133.512 203.861 133.512H202.124C200.979 133.512 200.832 133.857 200.832 134.788C200.832 135.235 200.72 140.439 200.72 142.851V145.815H200.721Z" fill="#1A1A18"/>
<path fill-rule="evenodd" clip-rule="evenodd" d="M227.355 142.162C227.355 141.335 227.263 135.132 227.233 134.684C227.173 133.856 226.874 133.513 226.242 133.513L224.8 133.512C224.65 133.512 224.559 133.443 224.559 133.305V132.307C224.559 132.168 224.65 132.098 224.77 132.098C225.129 132.098 226.663 132.202 229.607 132.202C232.672 132.202 233.634 132.098 234.055 132.098C234.205 132.098 234.266 132.202 234.266 132.409V133.271C234.266 133.443 234.175 133.513 234.025 133.513L233.152 133.512C232.402 133.512 231.951 133.788 231.951 134.408C231.951 134.752 231.862 142.368 231.862 142.782V145.435C231.862 145.782 231.951 153.742 231.951 154.051C231.951 155.119 232.402 155.291 232.972 155.291H234.205C234.354 155.291 234.445 155.36 234.445 155.532V156.497C234.445 156.635 234.354 156.705 234.174 156.705C233.815 156.703 232.612 156.6 229.758 156.6C226.602 156.6 225.31 156.705 224.979 156.705C224.83 156.703 224.739 156.635 224.739 156.429V155.498C224.739 155.36 224.83 155.291 224.979 155.291H225.851C226.451 155.291 227.083 155.188 227.201 154.36C227.263 153.844 227.355 146.4 227.355 144.574V142.162Z" fill="#1A1A18"/>
<path fill-rule="evenodd" clip-rule="evenodd" d="M72.3421 189.43C72.3421 189.872 72.4935 190.189 72.4935 190.441C72.4935 190.694 72.2676 190.82 71.8928 190.945C68.8587 192.241 65.6744 192.967 60.9172 192.967C57.0214 192.967 52.6375 191.926 50.0531 189.367C47.7689 187.187 46.6066 184.502 46.6066 180.681C46.6066 177.806 48.2182 174.741 50.9517 172.752C53.6875 170.73 57.0598 169.656 61.5541 169.656C65.3377 169.656 68.148 170.539 69.3837 171.204C69.8323 171.423 70.0944 171.36 70.32 171.109L70.6944 170.604C70.8823 170.382 70.9562 170.287 71.1817 170.287C71.5927 170.287 71.706 170.508 71.706 170.856L72.2672 177.363C72.3045 177.743 72.2672 177.9 72.1165 177.932L71.0691 178.122C70.8435 178.153 70.7324 178.089 70.6191 177.806C70.0199 176.258 68.8207 174.236 67.2114 173.004C65.7501 171.836 63.8387 171.046 61.292 171.046C59.2699 171.046 57.3962 171.582 55.6358 173.415C53.9116 175.151 52.6379 177.774 52.6379 180.616C52.6379 184.344 53.8758 187.596 55.8976 189.303C57.6579 190.788 59.0823 191.451 61.6294 191.451C63.5773 191.451 64.6266 191.324 65.8612 190.82C66.6494 190.503 66.7244 189.493 66.7244 187.851V185.577C66.7244 184.439 66.3493 184.124 65.4126 184.124H63.8391C63.6157 184.124 63.5777 183.998 63.5777 183.837V183.048C63.5777 182.922 63.6157 182.828 63.8391 182.828C64.1758 182.828 66.0133 182.922 69.3841 182.922C72.8299 182.922 74.2162 182.828 74.5167 182.828C74.8165 182.828 74.8531 182.922 74.8531 183.08V183.87C74.8531 184.06 74.8165 184.124 74.5906 184.124H73.5051C72.8291 184.124 72.3421 184.344 72.3421 185.26V189.43Z" fill="#1A1A18"/>
<path fill-rule="evenodd" clip-rule="evenodd" d="M93.6374 181.54C94.2925 181.573 94.706 181.573 95.0181 181.573C99.5703 181.573 100.641 177.458 100.641 175.924C100.641 174.422 100.089 172.986 99.3296 172.266C98.0886 171.222 96.5358 170.831 95.5002 170.831C94.9144 170.831 94.4659 170.896 94.1902 171.124C93.9828 171.255 93.8784 171.614 93.8104 172.005L93.6374 181.54ZM88.8084 178.014C88.8084 175.597 88.8084 173.508 88.7734 172.627C88.7397 171.549 88.2909 170.994 87.8088 170.994H86.4281C86.2557 170.994 86.2207 170.896 86.2207 170.766V169.884C86.2207 169.72 86.2557 169.656 86.4281 169.656C86.7385 169.654 87.8088 169.753 91.5671 169.753C93.5 169.753 96.5351 169.656 97.9499 169.656C100.64 169.654 102.64 170.57 104.056 171.81C105.297 172.886 106.021 174.16 106.021 175.37C106.021 179.516 102.744 181.376 99.7097 181.637V181.866C100.779 182.193 101.331 182.812 101.986 183.596C102.434 184.12 104.332 187.026 104.607 187.417C104.815 187.709 106.678 190.192 107.367 190.944C107.781 191.369 109.091 191.628 109.885 191.628C110.126 191.628 110.161 191.76 110.161 191.89V192.673C110.161 192.869 110.126 192.967 109.885 192.967C109.61 192.967 108.713 192.869 106.056 192.869C105.056 192.869 103.779 192.934 102.78 192.967C101.745 192.216 99.6053 188.43 99.0188 187.319C97.8448 185.099 96.4314 182.682 94.7767 182.682H93.6027V184.347C93.6027 186.273 93.706 189.931 93.7751 190.355C93.8458 191.041 94.1205 191.628 94.6376 191.628H96.0534C96.2944 191.628 96.3274 191.727 96.3274 191.89V192.672C96.3274 192.902 96.2944 192.967 95.7766 192.967C95.7416 192.967 94.8807 192.869 91.2574 192.869C87.6011 192.869 86.8062 192.967 86.4281 192.967C86.1517 192.967 86.1517 192.869 86.1517 192.641V191.889C86.1517 191.726 86.1517 191.627 86.324 191.627H87.3597C88.1189 191.627 88.7397 191.4 88.7397 190.583C88.8084 187.351 88.8084 184.281 88.8084 181.18V178.014Z" fill="#1A1A18"/>
<path fill-rule="evenodd" clip-rule="evenodd" d="M142.496 181.848C142.496 174.93 137.181 171.141 134.079 171.141C133.341 171.139 131.494 170.982 129.243 172.846C127.064 174.615 125.956 177.932 125.956 180.522C125.956 188.608 131.383 191.483 134.449 191.483C141.28 191.483 142.496 184.438 142.496 181.848ZM125.475 190.914C122.854 189.555 120.047 186.144 120.047 181.533C120.047 179.605 120.638 176.604 123.482 173.667C126.729 170.287 130.903 169.656 134.226 169.656C137.291 169.656 140.133 170.067 143.235 172.152C146.042 174.046 148.294 177.237 148.294 181.596C148.294 183.901 147.445 186.303 145.526 188.514C143.127 191.072 139.988 192.967 134.153 192.967C131.605 192.967 128.392 192.462 125.475 190.914Z" fill="#1A1A18"/>
<path fill-rule="evenodd" clip-rule="evenodd" d="M159.817 172.61C159.817 171.487 159.557 170.972 158.775 170.972H157.028C156.804 170.972 156.768 170.908 156.768 170.684V169.912C156.768 169.719 156.804 169.656 157.102 169.656C157.473 169.655 159.297 169.751 163.204 169.751C166.481 169.751 168.266 169.656 168.676 169.656C168.973 169.655 169.01 169.72 169.01 169.912V170.747C169.01 170.908 168.973 170.972 168.712 170.972H167.447C166.181 170.972 165.55 171.582 165.476 172.223C165.439 172.578 165.399 174.76 165.399 176.399V178.518C165.399 180.219 165.55 184.298 165.587 185.325C165.623 186.803 165.96 188.247 166.779 189.146C168.005 190.433 169.755 190.946 171.43 190.946C172.807 190.946 174.817 190.335 175.821 189.533C177.31 188.377 178.168 186.61 178.168 184.298V179.353C178.168 176.654 177.795 173.123 177.645 172.384C177.496 171.549 176.901 170.972 176.268 170.972H175.077C174.855 170.972 174.817 170.875 174.817 170.715V169.88C174.817 169.719 174.855 169.656 175.077 169.656C175.449 169.654 177.163 169.751 179.692 169.751C181.703 169.751 182.894 169.656 183.229 169.656C183.563 169.654 183.602 169.784 183.602 169.944V170.651C183.602 170.844 183.563 170.972 183.378 170.972H182.225C180.809 170.972 180.697 171.871 180.623 172.191C180.549 172.64 180.549 177.074 180.549 177.523C180.549 177.973 180.473 183.592 180.363 184.844C180.139 187.477 179.135 189.499 177.199 190.978C175.562 192.229 173.03 192.967 170.612 192.967C168.863 192.967 166.482 192.744 164.918 192.165C163.132 191.491 161.494 189.981 160.601 187.926C159.968 186.544 159.819 184.394 159.819 180.188V172.61H159.817Z" fill="#1A1A18"/>
<path fill-rule="evenodd" clip-rule="evenodd" d="M200.66 181.736C201.463 181.9 202.304 181.931 202.887 181.931C204.02 181.931 205.847 180.886 206.651 179.745C207.381 178.731 207.527 177.49 207.527 176.284C207.527 171.779 203.872 170.831 202.377 170.831C201.756 170.831 201.318 170.864 200.66 170.994V181.736ZM200.66 184.218C200.66 185.752 200.696 190.192 200.733 190.584C200.804 191.302 201.17 191.628 201.756 191.628H203.617C203.872 191.628 203.911 191.727 203.911 191.857V192.707C203.911 192.869 203.872 192.967 203.581 192.967C203.069 192.967 201.937 192.869 197.665 192.869C194.45 192.869 193.025 192.967 192.624 192.967C192.369 192.967 192.331 192.869 192.331 192.739V191.857C192.331 191.693 192.369 191.628 192.551 191.628H193.5C194.743 191.628 194.998 191.465 195.106 190.648C195.144 190.322 195.253 185.23 195.253 181.441V177.688C195.253 175.531 195.217 172.104 195.182 171.713C195.107 171.059 194.743 170.994 194.01 170.994H192.295C192.113 170.994 192.076 170.929 192.076 170.733V169.884C192.076 169.72 192.113 169.656 192.295 169.656C192.697 169.654 194.01 169.753 197.847 169.753C198.505 169.753 200.659 169.656 201.866 169.656C206.357 169.654 208.511 169.982 210.632 171.45C212.165 172.496 213.261 174.357 213.261 176.512C213.261 180.429 209.754 183.106 203.617 183.106C202.487 183.106 201.646 183.075 200.66 183.008V184.218Z" fill="#1A1A18"/>
<path fill-rule="evenodd" clip-rule="evenodd" d="M43.8584 223.149C43.6381 222.594 42.1245 218.234 41.9905 217.852C41.9015 217.621 41.8588 217.507 41.7694 217.507C41.6354 217.507 41.5463 217.585 41.4801 217.756C41.3918 218.004 39.3891 222.708 39.2319 223.149H43.8584ZM38.9228 223.913C38.7435 224.353 37.6548 227.086 37.5429 227.604C37.4972 227.757 37.4972 227.91 37.4972 228.004C37.4972 228.252 37.8546 228.465 38.2993 228.465H39.2319C39.4119 228.465 39.4549 228.502 39.4549 228.559V229.038C39.4549 229.15 39.4119 229.229 39.2772 229.229C38.9658 229.229 38.0328 229.171 36.4759 229.171C34.8287 229.171 34.3388 229.229 34.0294 229.229C33.8958 229.229 33.8958 229.113 33.8958 228.98V228.617C33.8958 228.502 33.9387 228.465 34.0294 228.465H34.6963C35.3175 228.465 35.7176 228.196 36.1192 227.604C36.3419 227.259 37.9429 223.818 38.6102 222.212C38.7659 221.829 40.5668 217.7 40.7907 217.203C40.8337 217.009 40.9685 216.666 40.8337 216.551C40.7682 216.493 40.7016 216.379 40.7016 216.321C40.7016 216.245 40.7454 216.169 40.9228 216.13C41.6346 215.978 42.8588 215.405 43.1261 215.176C43.257 215.059 43.3484 214.983 43.4576 214.983C43.5927 214.983 43.6803 215.214 43.7268 215.329C44.1264 216.514 45.8611 220.796 46.2627 222.02C46.7945 223.512 48.2197 227.068 48.5303 227.585C48.9319 228.234 49.5098 228.465 49.954 228.465H50.6647C50.7999 228.465 50.8436 228.502 50.8436 228.598V228.999C50.8436 229.114 50.7999 229.229 50.6205 229.229C50.2216 229.229 49.7762 229.171 47.3293 229.171C45.4607 229.171 44.7054 229.229 44.2163 229.229C44.0381 229.229 43.9932 229.114 43.9932 228.999V228.617C43.9932 228.502 44.0377 228.465 44.1706 228.465H44.7484C45.3727 228.465 45.5497 228.273 45.4181 227.757C45.238 227.068 44.348 224.621 44.0819 223.913H38.9228V223.913Z" fill="#1A1A18"/>
<path fill-rule="evenodd" clip-rule="evenodd" d="M58.2232 230.232C58.0117 230.232 57.9052 230.173 57.9052 230.057C57.9052 229.94 57.9464 229.804 58.0317 229.687C61.3133 225.509 64.6167 221.313 67.8782 217.117H62.9325C62.6342 217.117 62.2943 217.196 61.8888 217.45C61.4201 217.721 59.6295 219.635 59.2261 220.201C59.1412 220.317 59.054 220.317 58.9694 220.279L58.6722 220.124C58.585 220.124 58.585 220.084 58.585 219.966L59.9497 216.493C59.9916 216.317 60.1196 216.279 60.2046 216.279C60.3333 216.279 60.5036 216.299 60.6736 216.317C61.6958 216.434 64.6809 216.415 66.4712 216.415C67.5353 216.415 68.4729 216.376 69.2844 216.376C70.0076 216.337 70.7319 216.299 71.1155 216.299C71.4361 216.299 71.5422 216.552 71.3716 216.766C68.0047 221 64.6805 225.256 61.3556 229.491H67.0244C67.3657 229.491 68.0893 229.491 68.3883 229.373C69.113 229.1 71.0736 226.992 71.3716 226.641C71.4573 226.563 71.5422 226.563 71.6276 226.602L71.9678 226.76C72.0116 226.797 72.0524 226.837 72.0116 226.954C71.7133 227.384 70.6473 229.804 70.4332 230.31C70.3912 230.427 70.2636 230.525 70.136 230.525C70.0514 230.525 69.8792 230.506 69.6243 230.467C68.4318 230.31 65.0649 230.232 63.1032 230.232H58.2232Z" fill="#1A1A18"/>
<path fill-rule="evenodd" clip-rule="evenodd" d="M83.0239 223.915C83.042 224.895 83.0773 226.673 83.0773 226.998C83.0773 227.941 83.4007 228.305 83.7957 228.413C84.0838 228.486 84.5148 228.558 85.1975 228.558C85.5209 228.558 86.3466 228.522 86.7059 228.486C87.0302 228.45 87.712 228.269 88.1787 227.869C88.5021 227.58 89.5066 226.382 89.8491 225.948C89.921 225.856 89.9745 225.838 90.048 225.874L90.3348 226.056C90.3877 226.092 90.4061 226.146 90.3695 226.237L89.5066 228.956C89.4544 229.12 89.329 229.23 89.1119 229.23C89.0219 229.23 88.6265 229.212 87.5134 229.194C86.3825 229.194 84.5323 229.175 81.5326 229.175C80.8677 229.175 80.382 229.194 80.0058 229.194C79.647 229.213 79.395 229.23 79.2333 229.23C79.1251 229.23 79.09 229.194 79.09 229.083V228.649C79.09 228.54 79.1251 228.503 79.2692 228.503H79.8807C80.7057 228.503 80.7783 228.395 80.7783 227.724V221.629C80.7783 220.143 80.7429 217.894 80.7057 217.639C80.6341 217.149 80.4561 217.005 79.9157 217.005H79.2339C79.1626 217.005 79.1257 216.968 79.1257 216.878V216.406C79.1257 216.315 79.1441 216.279 79.2339 216.279C79.6295 216.279 80.2766 216.351 81.7484 216.334H82.251C83.042 216.334 87.1738 216.298 87.9638 216.298C88.2509 216.298 88.5924 216.279 88.6822 216.279C88.7726 216.279 88.8073 216.315 88.8255 216.387C88.8971 216.623 89.5789 219.09 89.6527 219.272C89.6871 219.381 89.6702 219.436 89.598 219.471L89.2739 219.617C89.2205 219.634 89.167 219.617 89.1122 219.525C89.0409 219.417 87.5682 217.747 87.1369 217.495C86.76 217.276 86.2753 217.04 85.7714 217.024L83.042 216.951L83.0051 222.192C83.5452 222.192 84.8372 222.157 85.0546 222.102C85.4493 222.029 85.6648 221.884 85.8799 221.45C85.9881 221.214 86.1664 220.76 86.1664 220.432C86.1664 220.325 86.2399 220.287 86.3118 220.287L86.7788 220.325C86.8501 220.325 86.9036 220.359 86.8851 220.469C86.8501 220.76 86.8501 221.956 86.8501 222.427C86.8501 223.152 86.922 224.024 86.9571 224.423C86.9571 224.513 86.922 224.533 86.8138 224.55L86.4188 224.622C86.3472 224.641 86.3122 224.605 86.2756 224.495C86.2036 224.205 86.0785 223.807 85.9885 223.589C85.8268 223.227 85.4846 222.971 85.0899 222.935C84.4434 222.863 83.5815 222.827 83.0054 222.827L83.0239 223.915Z" fill="#1A1A18"/>
<path fill-rule="evenodd" clip-rule="evenodd" d="M104.471 222.791C104.76 222.827 105.011 222.864 105.259 222.864C108.5 222.864 109.164 220.578 109.164 219.743C109.164 218.909 108.77 218.129 108.249 217.713C107.503 217.131 106.548 216.933 105.509 216.933C105.176 216.933 104.928 216.949 104.76 217.041C104.594 217.131 104.512 217.347 104.512 217.566L104.471 222.791ZM104.429 224.422C104.429 225.51 104.471 227.542 104.512 227.814C104.575 228.176 104.72 228.504 105.052 228.504H106.091C106.216 228.504 106.257 228.558 106.257 228.631V229.065C106.257 229.193 106.195 229.229 106.029 229.229C105.76 229.229 105.343 229.174 103.183 229.174C101.148 229.174 100.648 229.229 100.442 229.229C100.316 229.229 100.275 229.174 100.275 229.065V228.649C100.275 228.558 100.316 228.504 100.399 228.504H101.106C101.563 228.504 101.896 228.395 101.896 227.906C101.937 226.091 101.937 224.386 101.937 222.682V217.911C101.937 217.296 101.645 217.005 101.273 217.005H100.462C100.36 217.005 100.317 216.969 100.317 216.896V216.406C100.317 216.315 100.36 216.279 100.462 216.279C100.608 216.279 101.273 216.335 103.307 216.335C104.472 216.334 106.381 216.279 107.004 216.279C108.666 216.279 109.954 216.769 110.786 217.422C111.532 218.003 111.908 218.763 111.908 219.453C111.908 221.739 110.328 222.683 108.044 223.008V223.08C108.625 223.261 108.999 223.589 109.289 223.915C109.538 224.205 110.826 225.91 110.993 226.127C111.116 226.31 112.447 227.941 112.757 228.194C113.153 228.505 113.735 228.541 114.232 228.541C114.358 228.541 114.398 228.594 114.398 228.668V229.048C114.398 229.175 114.358 229.23 114.232 229.23C114.066 229.23 113.527 229.175 112.197 229.175C111.616 229.175 110.826 229.211 110.369 229.23C110.119 229.065 109.724 228.577 109.455 228.194C109.081 227.688 108.271 226.382 108.085 226.092C107.876 225.764 107.296 224.931 106.963 224.533C106.444 223.897 105.965 223.408 105.095 223.408C105.012 223.407 104.66 223.426 104.43 223.443V224.422H104.429Z" fill="#1A1A18"/>
<path fill-rule="evenodd" clip-rule="evenodd" d="M124.257 226.235C124.257 227.941 124.674 228.649 125.886 228.649C127.364 228.649 128.729 227.978 128.729 225.765C128.729 224.276 127.971 223.334 126.91 222.936C126.191 222.645 125.393 222.609 124.749 222.609H124.257V226.235ZM124.257 222.03C124.559 222.048 124.825 222.048 125.128 222.048C125.962 222.048 126.72 221.847 127.137 221.521C127.858 220.977 128.122 220.179 128.122 219.381C128.122 218.691 127.895 217.966 127.288 217.532C126.606 217.06 125.696 216.896 125.128 216.896C124.937 216.896 124.71 216.896 124.559 216.932C124.445 216.968 124.332 217.077 124.313 217.224C124.293 217.567 124.257 219.128 124.257 220.65V222.03ZM121.943 221.267C121.943 220.612 121.906 218.4 121.886 218.092C121.829 217.041 121.526 217.005 120.806 217.005H120.199C120.085 217.005 120.047 216.968 120.047 216.861V216.441C120.047 216.335 120.085 216.279 120.199 216.279C120.465 216.279 121.374 216.352 122.967 216.335C123.575 216.335 124.71 216.279 125.735 216.279C127.176 216.279 128.388 216.406 129.07 216.769C130.131 217.313 130.512 218.148 130.512 219.235C130.512 220.687 129.715 221.557 127.934 222.191V222.282C130.095 222.827 131.346 223.914 131.346 225.838C131.346 226.817 130.777 228.122 129.867 228.594C129.07 229.031 127.858 229.23 125.734 229.23C124.976 229.23 123.725 229.175 122.967 229.175C121.488 229.175 120.691 229.23 120.294 229.23C120.218 229.23 120.162 229.175 120.162 229.083V228.631C120.162 228.541 120.218 228.505 120.294 228.505H121.109C121.678 228.505 121.81 228.286 121.866 227.724C121.905 227.288 121.942 224.895 121.942 223.408L121.943 221.267Z" fill="#1A1A18"/>
<path fill-rule="evenodd" clip-rule="evenodd" d="M148.37 223.149C148.15 222.594 146.637 218.234 146.503 217.852C146.414 217.621 146.37 217.507 146.282 217.507C146.148 217.507 146.058 217.585 145.993 217.756C145.903 218.004 143.902 222.708 143.744 223.149H148.37ZM143.434 223.913C143.256 224.353 142.168 227.086 142.054 227.604C142.01 227.757 142.01 227.91 142.01 228.004C142.01 228.252 142.367 228.465 142.811 228.465H143.744C143.924 228.465 143.968 228.502 143.968 228.559V229.038C143.968 229.15 143.924 229.229 143.788 229.229C143.478 229.229 142.545 229.171 140.988 229.171C139.341 229.171 138.852 229.229 138.541 229.229C138.408 229.229 138.408 229.113 138.408 228.98V228.617C138.408 228.502 138.452 228.465 138.541 228.465H139.208C139.83 228.465 140.23 228.196 140.632 227.604C140.854 227.259 142.457 223.818 143.124 222.212C143.279 221.829 145.081 217.7 145.303 217.203C145.346 217.009 145.481 216.666 145.346 216.551C145.281 216.493 145.215 216.379 145.215 216.321C145.215 216.245 145.258 216.169 145.436 216.13C146.148 215.978 147.372 215.405 147.638 215.176C147.77 215.059 147.86 214.983 147.97 214.983C148.105 214.983 148.193 215.214 148.238 215.329C148.638 216.514 150.372 220.796 150.774 222.02C151.307 223.512 152.731 227.068 153.042 227.585C153.443 228.234 154.02 228.465 154.465 228.465H155.177C155.311 228.465 155.355 228.502 155.355 228.598V228.999C155.355 229.114 155.311 229.229 155.132 229.229C154.733 229.229 154.287 229.171 151.841 229.171C149.973 229.171 149.218 229.229 148.728 229.229C148.55 229.229 148.504 229.114 148.504 228.999V228.617C148.504 228.502 148.55 228.465 148.682 228.465H149.261C149.883 228.465 150.062 228.273 149.929 227.757C149.749 227.068 148.859 224.621 148.594 223.913H143.434V223.913Z" fill="#1A1A18"/>
<path fill-rule="evenodd" clip-rule="evenodd" d="M167.474 223.299C167.474 223.48 167.516 227.65 167.516 227.852C167.516 228.432 167.866 228.505 168.389 228.505H169.304C169.391 228.505 169.479 228.54 169.479 228.631V229.083C169.479 229.195 169.391 229.23 169.26 229.23C168.998 229.23 168.128 229.175 166.079 229.175C163.9 229.175 162.941 229.23 162.723 229.23C162.594 229.23 162.548 229.195 162.548 229.103V228.614C162.548 228.54 162.594 228.505 162.723 228.505H163.595C164.032 228.505 164.51 228.468 164.597 227.978C164.641 227.722 164.684 223.806 164.684 222.827V221.557C164.684 221.121 164.641 217.857 164.617 217.622C164.553 217.186 164.335 217.005 163.725 217.005H162.595C162.462 217.005 162.417 216.969 162.417 216.878V216.406C162.417 216.315 162.462 216.279 162.548 216.279C162.809 216.279 163.943 216.334 166.079 216.334C168.173 216.334 168.868 216.279 169.173 216.279C169.304 216.279 169.348 216.352 169.348 216.441V216.859C169.348 216.968 169.26 217.005 169.173 217.005H168.345C167.866 217.005 167.516 217.149 167.516 217.495C167.516 217.675 167.474 221.666 167.474 221.883V223.299Z" fill="#1A1A18"/>
<path fill-rule="evenodd" clip-rule="evenodd" d="M176.439 221.867C176.439 221.577 176.439 218.358 176.359 217.618C176.321 217.219 176.202 217.003 175.486 217.003H174.689C174.609 217.003 174.57 216.966 174.57 216.911V216.424C174.57 216.315 174.609 216.279 174.689 216.279C174.93 216.279 175.646 216.335 177.755 216.335C179.623 216.334 180.301 216.279 180.618 216.279C180.738 216.279 180.777 216.315 180.777 216.406V216.857C180.777 216.966 180.738 217.003 180.618 217.003H179.782C179.226 217.003 179.068 217.146 179.047 217.491C179.027 217.78 178.986 220.095 178.986 222.3V223.134C178.986 225.412 178.907 227.184 178.907 227.619C178.907 228.667 178.747 229.536 178.11 230.512C177.196 231.813 175.684 233.115 173.735 233.115C173.296 233.115 172.303 232.791 172.303 231.922C172.303 231.344 172.78 230.872 173.456 230.872C174.331 230.872 174.85 231.452 175.126 232.103C175.564 232.068 176.001 231.632 176.201 231.018C176.618 229.698 176.438 224.437 176.438 223.134L176.439 221.867Z" fill="#1A1A18"/>
<path fill-rule="evenodd" clip-rule="evenodd" d="M197.804 223.149C197.583 222.594 196.069 218.234 195.934 217.852C195.846 217.621 195.804 217.507 195.713 217.507C195.58 217.507 195.491 217.585 195.424 217.756C195.336 218.004 193.333 222.708 193.176 223.149H197.804ZM192.867 223.913C192.687 224.353 191.599 227.086 191.487 227.604C191.442 227.757 191.442 227.91 191.442 228.004C191.442 228.252 191.8 228.465 192.243 228.465H193.175C193.356 228.465 193.399 228.502 193.399 228.559V229.038C193.399 229.15 193.356 229.229 193.221 229.229C192.91 229.229 191.976 229.171 190.418 229.171C188.773 229.171 188.283 229.229 187.972 229.229C187.839 229.229 187.839 229.113 187.839 228.98V228.617C187.839 228.502 187.881 228.465 187.972 228.465H188.64C189.261 228.465 189.663 228.196 190.062 227.604C190.285 227.259 191.888 223.818 192.555 222.212C192.71 221.829 194.512 217.7 194.735 217.203C194.779 217.009 194.912 216.666 194.779 216.551C194.713 216.493 194.646 216.379 194.646 216.321C194.646 216.245 194.688 216.169 194.867 216.13C195.579 215.978 196.803 215.405 197.069 215.176C197.202 215.059 197.293 214.983 197.401 214.983C197.537 214.983 197.625 215.214 197.671 215.329C198.071 216.514 199.805 220.796 200.205 222.02C200.738 223.512 202.163 227.068 202.473 227.585C202.875 228.234 203.453 228.465 203.898 228.465H204.61C204.743 228.465 204.787 228.502 204.787 228.598V228.999C204.787 229.114 204.743 229.229 204.565 229.229C204.166 229.229 203.719 229.171 201.274 229.171C199.405 229.171 198.649 229.229 198.16 229.229C197.982 229.229 197.937 229.114 197.937 228.999V228.617C197.937 228.502 197.982 228.465 198.114 228.465H198.692C199.316 228.465 199.493 228.273 199.361 227.757C199.182 227.068 198.291 224.621 198.025 223.913H192.867V223.913Z" fill="#1A1A18"/>
<path fill-rule="evenodd" clip-rule="evenodd" d="M213.626 220.919C213.626 223.964 213.789 226.472 213.828 227.026C213.871 227.922 214.115 228.353 214.852 228.353H215.382C215.546 228.353 215.546 228.424 215.546 228.514V228.926C215.546 229.034 215.546 229.069 215.382 229.069C215.179 229.069 213.952 229.015 213.176 229.015C212.644 229.015 211.254 229.069 211.048 229.069C210.967 229.069 210.927 229.034 210.927 228.907V228.459C210.927 228.424 210.967 228.353 211.048 228.353H211.744C212.276 228.353 212.563 227.958 212.663 226.864C212.683 226.543 212.808 224.035 212.808 221.169V218.895C212.808 217.82 212.111 216.996 211.212 216.996H210.559C210.478 216.976 210.436 216.941 210.436 216.871V216.387C210.436 216.315 210.478 216.279 210.559 216.279C210.661 216.279 210.826 216.298 211.193 216.314C211.561 216.333 212.111 216.334 213.012 216.334C213.359 216.333 213.665 216.314 213.911 216.298C214.177 216.298 214.361 216.279 214.483 216.279C214.727 216.279 214.851 216.334 214.974 216.439C215.178 216.62 219.184 221.026 219.593 221.527C219.88 221.814 223.069 225.289 223.395 225.648L223.478 225.646V223.784C223.478 222.208 223.477 221.314 223.436 220.417C223.395 219.737 223.314 217.981 223.21 217.676C223.069 217.246 222.618 216.996 222.127 216.996H221.474C221.351 216.996 221.351 216.924 221.351 216.834V216.422C221.351 216.314 221.351 216.279 221.514 216.279C221.76 216.279 222.413 216.334 223.806 216.334C225.031 216.333 225.521 216.279 225.767 216.279C225.929 216.279 225.972 216.351 225.972 216.405V216.817C225.972 216.924 225.929 216.996 225.848 216.996H225.278C224.867 216.996 224.661 217.282 224.6 217.945C224.499 219.163 224.293 222.171 224.293 223.998V228.728C224.293 228.978 224.293 229.23 224.05 229.23C223.763 229.23 223.517 229.085 223.354 228.942C223.192 228.764 222.087 227.652 220.819 226.328C219.389 224.787 217.795 223.103 217.549 222.816C217.263 222.566 213.993 218.984 213.745 218.731H213.624V220.919H213.626Z" fill="#1A1A18"/>
<path fill-rule="evenodd" clip-rule="evenodd" d="M234.445 206.976C234.445 207.107 234.304 207.213 234.126 207.213H27.1502C26.9749 207.213 26.8341 207.107 26.8341 206.976V206.155C26.8341 206.024 26.9749 205.918 27.1502 205.918L234.126 205.919C234.304 205.919 234.445 206.024 234.445 206.157V206.976Z" fill="#1A1A18"/>
<path fill-rule="evenodd" clip-rule="evenodd" d="M234.445 240.412C234.445 240.671 234.304 240.885 234.126 240.885L27.1502 240.881C26.9749 240.881 26.8341 240.67 26.8341 240.412V238.767C26.8341 238.507 26.9749 238.295 27.1502 238.295L234.126 238.299C234.304 238.299 234.445 238.507 234.445 238.772V240.412Z" fill="#1A1A18"/>
<path fill-rule="evenodd" clip-rule="evenodd" d="M91.2289 256.005C91.9392 256.005 92.6189 255.96 92.806 255.919C93.0699 255.86 93.2844 255.729 93.5181 255.469C93.6883 255.252 93.8718 254.844 93.8718 254.568C93.8718 254.468 93.9194 254.439 93.9965 254.439L94.4151 254.482C94.4905 254.496 94.5543 254.51 94.5381 254.599C94.4905 254.844 94.4905 255.599 94.4905 256.107C94.4905 256.76 94.5539 257.455 94.5846 257.761C94.5983 257.849 94.5381 257.863 94.462 257.879L94.0892 257.95C94.0275 257.964 93.9962 257.938 93.9666 257.834C93.9053 257.601 93.7503 257.268 93.6565 257.093C93.4871 256.819 93.1139 256.63 92.806 256.588C92.3878 256.529 91.9097 256.498 91.2289 256.498V257.371C91.2289 258.153 91.3043 259.561 91.3043 259.822C91.3043 260.577 91.4763 260.838 91.6771 260.925C91.9097 261.011 92.2035 261.056 92.9758 261.056C93.2394 261.056 93.8876 261.042 94.2118 261.011C94.5229 260.983 94.9859 260.838 95.3897 260.533C95.7895 260.228 96.657 259.329 96.9653 258.981C97.0288 258.922 97.0738 258.908 97.1193 258.938L97.3835 259.082C97.4445 259.111 97.4603 259.154 97.4445 259.199L96.749 261.391C96.7032 261.519 96.595 261.607 96.4086 261.607C96.3307 261.607 95.9904 261.594 95.0021 261.578C93.9962 261.578 92.3589 261.563 89.6833 261.563C89.11 261.563 88.6781 261.578 88.3694 261.578C88.0435 261.594 87.843 261.607 87.7031 261.607C87.5953 261.607 87.564 261.563 87.564 261.446V261.143C87.564 261.056 87.6094 261.012 87.7172 261.012H88.1823C88.8944 261.012 88.956 260.911 88.956 260.403V255.541C88.956 254.337 88.9232 252.552 88.9088 252.408C88.8479 251.943 88.6921 251.841 88.2746 251.841H87.6707C87.6098 251.841 87.5953 251.799 87.5953 251.696V251.347C87.5953 251.305 87.6098 251.246 87.7031 251.246C88.0435 251.246 88.5836 251.289 89.9908 251.289L95.42 251.276C95.668 251.276 95.9608 251.246 96.038 251.246C96.1166 251.246 96.1443 251.276 96.1613 251.319C96.2236 251.522 96.7345 253.508 96.7955 253.653C96.8261 253.726 96.8261 253.756 96.749 253.801L96.502 253.916C96.4393 253.945 96.361 253.931 96.3159 253.857C96.2391 253.741 94.846 252.436 94.4901 252.232C94.166 252.044 93.734 251.856 93.3169 251.841L91.2762 251.783L91.2289 256.005Z" fill="#1A1A18"/>
<path fill-rule="evenodd" clip-rule="evenodd" d="M102.442 258.313C102.502 258.313 102.546 258.326 102.546 258.424C102.578 258.857 102.787 259.458 103.15 260.002C103.587 260.645 104.324 260.952 105.046 260.952C105.769 260.952 106.927 260.505 106.927 259.402C106.927 258.242 106.689 257.908 104.729 257.224C104.279 257.069 103.316 256.623 102.546 256.008C102.02 255.577 101.795 254.836 101.795 254.027C101.795 253.174 102.02 252.602 102.925 251.972C103.601 251.497 104.173 251.304 105.091 251.304C106.193 251.304 106.778 251.47 107.092 251.581C107.245 251.637 107.35 251.61 107.439 251.512L107.637 251.329C107.696 251.274 107.77 251.246 107.863 251.246C107.968 251.246 107.996 251.401 108.012 251.484L108.252 253.871C108.252 253.929 108.223 253.942 108.177 253.956L107.846 254.052C107.77 254.082 107.697 254.052 107.65 253.956C107.485 253.551 107.228 253.006 106.716 252.503C106.341 252.112 105.889 251.917 105.211 251.917C104.083 251.916 103.614 252.823 103.614 253.188C103.614 253.704 103.63 254.122 104.008 254.472C104.397 254.849 105.257 255.185 105.994 255.38C106.716 255.576 107.304 255.924 107.922 256.441C108.51 256.929 108.749 257.544 108.749 258.521C108.749 260.225 107.439 261.607 105.453 261.607C104.097 261.607 103.389 261.398 102.758 261.007C102.578 260.895 102.487 260.854 102.413 260.854C102.322 260.854 102.261 260.951 102.17 261.091C102.08 261.245 102.005 261.259 101.899 261.259C101.734 261.259 101.674 261.189 101.69 261.036L101.931 258.382C101.945 258.284 101.99 258.284 102.051 258.284L102.442 258.313Z" fill="#1A1A18"/>
<path fill-rule="evenodd" clip-rule="evenodd" d="M116.112 251.368H115.576C115.085 251.368 114.168 251.383 113.525 251.614C113.188 251.86 112.513 252.8 112.131 253.354C112.085 253.432 112.038 253.478 111.977 253.46L111.64 253.338C111.579 253.324 111.563 253.246 111.579 253.2C111.748 252.552 112.253 250.52 112.314 250.213C112.36 250.011 112.438 249.951 112.543 249.951C112.652 249.951 112.697 250.012 112.835 250.182C113.004 250.398 113.294 250.537 113.846 250.566C114.658 250.613 115.301 250.659 116.893 250.659H117.784C119.453 250.659 120.11 250.599 120.755 250.566C121.092 250.552 121.687 250.366 121.872 250.182C122.026 250.028 122.117 249.951 122.224 249.951C122.332 249.951 122.377 250.012 122.41 250.197C122.454 250.537 122.746 252.446 122.867 253.26C122.884 253.324 122.853 253.384 122.806 253.401L122.485 253.523C122.423 253.538 122.393 253.493 122.332 253.384C121.996 252.831 121.397 252.029 121.014 251.661C120.63 251.429 119.268 251.369 118.915 251.369H118.41V255.603C118.41 255.817 118.41 260.128 118.426 260.36C118.456 260.744 118.579 260.976 118.947 260.976L119.637 260.975C119.773 260.975 119.788 261.021 119.788 261.129V261.483C119.788 261.56 119.773 261.606 119.637 261.606C119.482 261.606 118.992 261.56 117.292 261.56C115.668 261.56 115.024 261.606 114.809 261.606C114.689 261.606 114.674 261.546 114.674 261.422V261.129C114.674 261.021 114.689 260.976 114.779 260.976L115.56 260.975C115.866 260.975 116.051 260.791 116.082 260.514C116.111 260.191 116.111 255.464 116.111 255.171V251.368H116.112Z" fill="#1A1A18"/>
<path fill-rule="evenodd" clip-rule="evenodd" d="M124.284 260.287C124.284 259.785 124.929 259.017 126.456 259.017C127.584 259.017 128.521 259.552 128.521 260.354C128.521 261.105 127.632 261.607 126.483 261.607C125.225 261.607 124.284 261.054 124.284 260.287Z" fill="#1A1A18"/>
<path fill-rule="evenodd" clip-rule="evenodd" d="M138.13 254.041C138.13 253.677 138.036 253.346 137.698 253.346C137.51 253.346 137.267 253.361 136.855 253.451L135.936 253.664C135.842 253.677 135.768 253.678 135.73 253.617L135.601 253.315C135.563 253.254 135.579 253.195 135.713 253.135L140.266 251.338C140.395 251.292 140.488 251.246 140.621 251.246C140.734 251.246 140.788 251.352 140.788 251.474C140.788 251.593 140.734 253.964 140.734 255.914V256.549C140.734 257.334 140.753 259.932 140.753 260.097C140.771 260.882 140.845 260.987 141.784 260.987H142.458C142.587 260.987 142.645 261.033 142.645 261.109V261.501C142.645 261.577 142.587 261.607 142.438 261.607C142.307 261.607 139.76 261.562 139.44 261.562C138.897 261.562 136.258 261.607 136.16 261.607C136.049 261.607 136.011 261.577 136.011 261.501V261.094C136.011 261.002 136.127 260.987 136.275 260.987H136.761C137.792 260.987 138.073 260.941 138.111 260.172C138.147 259.537 138.131 257.876 138.131 257.333L138.13 254.041Z" fill="#1A1A18"/>
<path fill-rule="evenodd" clip-rule="evenodd" d="M147.557 254.007C147.557 255.476 148.213 256.56 149.08 256.56C149.45 256.56 149.771 256.456 149.979 256.264C150.237 255.998 150.22 255.075 150.22 254.394C150.22 253.012 149.979 251.795 148.984 251.795C148.037 251.795 147.557 252.64 147.557 254.007ZM151.633 252.345C152.369 253.264 152.531 254.215 152.531 254.675C152.531 256.679 151.647 258.906 149.93 260.241C149.017 260.955 148.326 261.282 147.363 261.534C147.202 261.579 146.976 261.607 146.864 261.607C146.738 261.607 146.609 261.564 146.609 261.385C146.609 261.281 146.705 261.177 146.817 261.132C148.165 260.658 149.676 259.054 150.01 256.99H149.899C149.658 257.169 149.097 257.421 148.134 257.421C146.222 257.421 145.469 255.863 145.469 254.779C145.469 253.694 146.017 252.536 146.624 252.061C147.314 251.512 148.022 251.246 148.935 251.246C150.253 251.247 150.99 251.558 151.633 252.345Z" fill="#1A1A18"/>
<path fill-rule="evenodd" clip-rule="evenodd" d="M158.853 254.007C158.853 255.476 159.513 256.56 160.377 256.56C160.75 256.56 161.068 256.456 161.278 256.264C161.536 255.998 161.519 255.075 161.519 254.394C161.519 253.012 161.278 251.795 160.284 251.795C159.337 251.795 158.853 252.64 158.853 254.007ZM162.931 252.345C163.669 253.264 163.829 254.215 163.829 254.675C163.829 256.679 162.946 258.906 161.229 260.241C160.314 260.955 159.626 261.282 158.66 261.534C158.502 261.579 158.278 261.607 158.164 261.607C158.036 261.607 157.907 261.564 157.907 261.385C157.907 261.281 158.005 261.177 158.118 261.132C159.465 260.658 160.972 259.054 161.311 256.99H161.197C160.955 257.169 160.394 257.421 159.432 257.421C157.522 257.421 156.768 255.863 156.768 254.779C156.768 253.694 157.315 252.536 157.924 252.061C158.614 251.512 159.32 251.246 160.234 251.246C161.55 251.247 162.29 251.558 162.931 252.345Z" fill="#1A1A18"/>
<path fill-rule="evenodd" clip-rule="evenodd" d="M168.325 254.007C168.325 255.476 168.85 256.56 169.543 256.56C169.838 256.56 170.094 256.456 170.262 256.264C170.467 255.998 170.454 255.075 170.454 254.394C170.454 253.012 170.262 251.795 169.466 251.795C168.709 251.795 168.325 252.64 168.325 254.007ZM171.584 252.345C172.175 253.264 172.303 254.215 172.303 254.675C172.303 256.679 171.596 258.906 170.223 260.241C169.492 260.955 168.94 261.282 168.17 261.534C168.042 261.579 167.861 261.607 167.771 261.607C167.669 261.607 167.567 261.564 167.567 261.385C167.567 261.281 167.643 261.177 167.733 261.132C168.811 260.658 170.019 259.054 170.287 256.99H170.197C170.005 257.169 169.557 257.421 168.785 257.421C167.257 257.421 166.654 255.863 166.654 254.779C166.654 253.694 167.093 252.536 167.578 252.061C168.131 251.512 168.697 251.246 169.428 251.246C170.48 251.247 171.07 251.558 171.584 252.345Z" fill="#1A1A18"/>
<path fill-rule="evenodd" clip-rule="evenodd" d="M125.08 99.9513C125.08 95.9196 119.497 92.6456 112.368 92.6137L112.303 92.6108C101.051 92.0198 86.663 91.6964 77.0725 79.9286C72.2605 74.0222 71.3491 66.6567 72.1396 59.5159C72.5373 55.9506 73.7499 52.4573 75.6862 49.2937C77.6135 46.1281 80.2544 43.3015 83.3541 40.9465C86.4652 38.6005 90.0671 36.7524 93.93 35.5353C101.866 33.0373 110.424 33.6771 112.719 33.455C115.921 33.1419 117.884 32.9386 119.798 32.1599C130.231 27.9223 126.744 19.5485 125.735 17.5896C124.738 15.6353 120.761 10.3732 115.209 10.3732C115.172 10.3716 115.134 10.3608 115.096 10.3608C115.052 10.3608 115.015 10.3732 114.973 10.3732C114.829 10.3781 114.684 10.3946 114.54 10.4125C114.417 10.4297 114.293 10.4492 114.173 10.4761C114.127 10.4862 114.079 10.4862 114.032 10.5008V10.5148C112.46 10.933 111.303 12.2336 111.303 13.7918C111.303 15.6866 112.999 17.2236 115.095 17.2236C121.009 17.2236 123.09 20.2626 123.267 22.4939C123.578 26.3921 120.481 28.187 120.05 28.3191C119.795 28.3987 119.527 28.4747 119.252 28.5507C119.836 27.6784 120.165 26.7026 120.187 25.7257C120.299 23.6146 118.964 21.4619 116.958 20.4964C116.099 20.0512 115.111 19.8151 114.099 19.8044C112.961 19.792 111.85 20.0781 111.002 20.5851C110.863 20.6558 110.733 20.7315 110.662 20.7883L110.599 20.8267L110.535 20.8828C110.322 21.0514 110.148 21.2384 110.015 21.4382C109.281 22.5598 109.69 24.0137 110.93 24.6775C111.314 24.886 111.752 24.9993 112.195 25.0042C113.093 25.0133 113.951 24.5927 114.494 23.8796C114.731 23.5685 115.049 23.4045 115.411 23.4097C116.29 23.4168 117.222 24.3248 117.206 25.6618C117.2 26.2369 117.023 26.8468 116.73 27.3309C116.367 27.9051 115.921 28.3363 115.361 28.6578C114.468 29.1878 113.137 29.3291 111.877 29.4142C109.414 29.3479 103.673 28.6192 99.0352 29.2463C96.8157 29.5467 94.397 29.949 92.1405 30.5956C87.5841 31.8621 83.26 33.8726 79.4492 36.5329C71.8018 41.8057 66.432 49.9678 65.2438 58.7979C64.6206 63.1953 65.0575 67.7014 66.4682 71.9185C67.8729 76.1421 70.2499 80.064 73.3421 83.3995C79.4941 90.1077 88.5939 93.8289 97.9551 94.7873C104.589 95.4647 111.475 94.7577 116.395 95.5939C119.664 96.1492 120.933 97.3995 121.442 98.2315C123.13 100.981 120.363 103.34 118.345 101.687C117.205 100.753 115.511 100.659 114.404 101.628C113.299 102.595 113.269 104.193 114.341 105.193C114.563 105.4 114.823 105.559 115.094 105.68V105.687C115.105 105.692 115.117 105.694 115.13 105.699C115.279 105.766 115.436 105.817 115.593 105.857C117.864 106.608 120.737 106.101 122.678 104.463C123.778 103.584 125.08 102.264 125.08 99.9513Z" fill="#1A1A18"/>
<path fill-rule="evenodd" clip-rule="evenodd" d="M197.443 58.7977C196.228 49.9677 190.734 41.8077 182.912 36.5329C179.018 33.8727 174.593 31.8625 169.934 30.5957C167.626 29.9492 165.155 29.5468 162.883 29.2464C158.138 28.6193 152.266 29.3487 149.749 29.4143C148.461 29.3273 147.099 29.188 146.185 28.658C145.611 28.3365 145.155 27.9052 144.785 27.3311C144.486 26.8472 144.305 26.238 144.299 25.6619C144.282 24.324 145.234 23.417 146.135 23.4099C146.505 23.404 146.83 23.569 147.071 23.8798C147.627 24.5929 148.505 25.0134 149.423 25.0043C149.875 25.0011 150.324 24.8858 150.72 24.6776C151.985 24.0132 152.404 22.56 151.651 21.4384C151.516 21.2383 151.339 21.0516 151.121 20.8837L151.055 20.8269L150.992 20.7879C150.918 20.7317 150.785 20.6544 150.644 20.5853C149.776 20.0777 148.641 19.7923 147.478 19.8046C146.441 19.8153 145.431 20.0537 144.553 20.4966C142.5 21.4611 141.137 23.6154 141.248 25.724C141.274 26.7024 141.609 27.6782 142.204 28.5505C141.925 28.4742 141.651 28.3982 141.391 28.319C140.947 28.1861 137.781 26.3923 138.098 22.4938C138.281 20.2622 140.408 17.2236 146.456 17.2236C148.6 17.2236 150.338 15.6872 150.338 13.7917C150.338 12.2333 149.153 10.9337 147.543 10.5148L147.544 10.4998C147.496 10.4862 147.447 10.4862 147.401 10.4761C147.277 10.4492 147.151 10.43 147.024 10.4125C146.878 10.392 146.73 10.3787 146.584 10.3732C146.54 10.3725 146.501 10.3608 146.456 10.3608C146.418 10.3608 146.379 10.3716 146.341 10.3732C140.664 10.3725 136.596 15.6359 135.575 17.5896C134.546 19.5484 130.977 27.9221 141.647 32.1597C143.606 32.9381 145.611 33.1413 148.887 33.4547C151.233 33.6772 159.756 33.732 161.941 34.1149C164.136 34.4897 166.107 34.917 168.104 35.5353C172.056 36.7544 175.74 38.6005 178.921 40.9465C182.09 43.3008 184.791 46.128 186.762 49.2936C188.744 52.4566 189.982 55.9511 190.391 59.5158C191.197 66.6561 190.266 74.0225 185.345 79.9282C175.536 91.6958 160.821 92.0193 149.313 92.6103L149.247 92.6132C141.957 92.6451 136.247 95.9197 136.247 99.9514C136.247 102.264 137.577 103.584 138.704 104.463C140.689 106.101 143.626 106.608 145.949 105.857C146.11 105.817 146.27 105.766 146.422 105.699C146.435 105.694 146.448 105.692 146.459 105.687V105.68C146.738 105.559 147.002 105.401 147.231 105.193C148.324 104.192 148.296 102.595 147.165 101.628C146.033 100.659 144.3 100.754 143.134 101.687C141.07 103.34 138.24 100.982 139.968 98.2316C140.49 97.3996 141.785 96.1497 145.13 95.594C150.162 94.7575 157.203 95.4648 163.988 94.7874C173.561 93.8291 182.867 90.1079 189.162 83.3991C192.323 80.064 194.754 76.1421 196.191 71.9185C197.633 67.7008 198.078 63.195 197.443 58.7977Z" fill="#1A1A18"/>
<path fill-rule="evenodd" clip-rule="evenodd" d="M110.452 43.9474C115.188 43.9474 118.675 45.9759 120.795 48.1245C123.288 50.6333 124.906 53.971 125.779 56.3589C125.905 56.716 126.03 56.8939 126.403 56.8352L127.899 56.5989C128.147 56.5358 128.147 56.2385 128.147 55.7619L127.523 43.8269C127.523 43.35 127.4 42.9946 126.778 42.9946C126.404 42.9946 126.217 43.1738 125.906 43.5897L125.157 44.5442C124.784 45.0204 124.408 45.1996 123.662 44.663C121.668 43.2295 116.931 41.4424 110.951 41.4424C103.473 41.4424 97.7416 43.4709 93.2552 47.2882C88.642 51.1092 86.1517 56.8348 86.1517 62.3225C86.1517 69.3658 88.0191 74.4981 91.8844 78.553C96.1192 83.446 103.723 85.4752 109.828 85.4752C117.305 85.4752 122.415 84.0421 127.523 81.5387C128.147 81.2994 128.521 81.0601 128.521 80.5815C128.521 80.1069 128.271 79.5099 128.271 78.6735V70.7956C128.271 69.0665 128.296 68.4697 128.296 68.114V66.6221C128.296 66.3221 128.17 66.2023 127.672 66.2023C127.049 66.2023 124.763 66.3832 121.706 66.3832C118.714 66.3829 116.059 66.2023 115.311 66.2023C115.063 66.2023 114.938 66.3228 114.938 66.6805V68.0519C114.938 68.3489 115.063 68.5902 115.438 68.5902H118.054C119.67 68.5902 120.298 69.1856 120.298 71.3346V75.6906C120.298 78.794 120.172 80.463 118.802 81.1803C116.683 82.2522 114.314 82.7288 110.326 82.7288C106.337 82.7288 103.35 81.4155 100.358 78.6739C96.743 75.2136 94.7491 69.1279 94.7491 62.0873C94.7491 56.8352 96.865 51.8237 99.8586 48.6031C103.223 44.9023 106.589 43.9478 110.452 43.9474Z" fill="#1A1A18"/>
<path fill-rule="evenodd" clip-rule="evenodd" d="M131.346 80.5826C131.346 81.0595 131.744 81.2988 132.408 81.5381C137.859 84.0411 143.31 85.4752 151.284 85.4752C157.798 85.4752 165.909 83.4457 170.427 78.5528C174.547 74.4962 176.54 69.3663 176.54 62.3244C176.54 56.8351 173.883 51.1098 168.963 47.2881C164.178 43.4708 158.063 41.4424 150.09 41.4424C143.708 41.4424 138.656 43.2299 136.528 44.663C135.734 45.1996 135.332 45.0207 134.934 44.5441L134.137 43.5897C133.805 43.1748 133.606 42.9946 133.206 42.9946C132.542 42.9946 132.408 43.3524 132.408 43.8289L131.744 55.7618C131.744 56.2397 131.744 56.5357 132.012 56.5991L133.606 56.8351C134.005 56.8935 134.137 56.7159 134.271 56.3588C135.202 53.9703 136.929 50.6315 139.589 48.1245C141.849 45.9755 145.571 43.9494 150.621 43.9494C154.741 43.9494 158.329 44.9022 161.919 48.6011C165.112 51.8226 167.37 56.8351 167.37 62.0871C167.37 69.127 165.244 75.2141 161.387 78.6736C158.197 81.4152 155.008 82.7285 150.753 82.7285C146.501 82.7285 143.975 82.2523 141.715 81.18C140.251 80.4627 140.118 78.7937 140.118 75.692V71.3343C140.118 69.1854 140.785 68.59 142.513 68.59H145.304C145.702 68.59 145.835 68.351 145.835 68.0517V66.6804C145.835 66.3223 145.702 66.2021 145.437 66.2021C144.64 66.2021 141.808 66.383 138.615 66.383C135.356 66.3827 132.918 66.2021 132.252 66.2021C131.72 66.2021 131.587 66.3226 131.587 66.6206V68.1134C131.587 68.4719 131.613 69.0666 131.613 70.796V78.6736C131.613 79.5093 131.346 80.1067 131.346 80.5826Z" fill="#1A1A18"/>
<path fill-rule="evenodd" clip-rule="evenodd" d="M131.295 4.24059C132.897 4.24059 134.197 5.5249 134.197 7.10625C134.197 9.1721 133.364 10.3234 132.531 12.9799C132.218 13.9827 131.934 14.7759 131.813 16.0389C131.738 16.8211 131.73 18.1554 131.331 18.1554C130.996 18.1554 130.937 16.7232 130.86 16.0578C130.732 14.9348 130.399 14.106 130.079 12.8706C129.402 10.2648 128.392 9.37886 128.392 7.1059C128.392 5.52456 129.69 4.24059 131.295 4.24059ZM129.578 19.2181C130.057 20.328 130.451 21.5014 130.763 22.714C130.964 23.5049 131.562 23.5131 131.764 22.7237C132.08 21.4917 132.481 20.3015 132.972 19.1716C134.803 14.8142 137.66 11.3865 140.99 9.57011C141.55 9.26411 142.041 8.96844 142.645 8.72412C142.645 5.68204 140.499 3.19475 137.969 3.19475C137.14 3.1944 136.372 3.47938 135.702 3.94217C135.137 1.66853 133.404 5.22337e-08 131.331 5.22337e-08C129.235 -0.000344543 127.486 1.70437 126.94 4.01557C126.246 3.50316 125.434 3.19475 124.56 3.19475C122.027 3.1944 120.047 5.74923 120.047 8.79373C120.534 8.99808 121.077 9.32028 121.534 9.56976C124.864 11.3837 127.721 14.8128 129.578 19.2181Z" fill="#1A1A18"/>
<path fill-rule="evenodd" clip-rule="evenodd" d="M130.61 112.822C129.327 112.822 128.287 111.835 128.287 110.617C128.287 109.029 128.954 108.144 129.619 106.1C129.87 105.331 130.099 104.722 130.195 103.751C130.255 103.149 130.262 102.122 130.581 102.122C130.848 102.122 130.897 103.224 130.958 103.736C131.061 104.6 131.327 105.236 131.583 106.186C132.125 108.188 132.935 108.871 132.935 110.617C132.935 111.834 131.894 112.822 130.61 112.822ZM132.163 101.417C131.704 100.6 131.327 99.7389 131.031 98.8483C130.842 98.2826 130.282 98.2861 130.093 98.8558C129.801 99.7327 129.43 100.581 128.983 101.38C127.242 104.565 124.563 107.04 121.441 108.351C121.012 108.531 120.502 108.761 120.047 108.911C120.047 111.11 121.904 112.957 124.277 112.957C125.097 112.957 125.858 112.731 126.51 112.359C127.019 114.03 128.661 115.262 130.625 115.262C132.569 115.262 134.197 114.056 134.723 112.413C135.351 112.749 136.07 112.957 136.848 112.957C139.22 112.957 141.232 111.159 141.232 108.961C140.667 108.785 140.205 108.569 139.681 108.351C136.559 107.037 133.883 104.564 132.163 101.417Z" fill="#1A1A18"/>
</svg>
