<svg width="251" height="251" viewBox="0 0 251 251" fill="none" xmlns="http://www.w3.org/2000/svg">
<g clip-path="url(#clip0_0_75)">
<path d="M70.3004 55.0455C84.7301 55.0456 98.6054 55.0456 112.833 55.0456C112.833 74.501 112.833 93.5008 112.833 112.463C104.954 113.96 98.6453 112.882 92.9545 106.278C84.8799 96.9063 75.5844 88.5868 66.0176 79.0254C62.8414 82.9419 59.835 86.6489 56.8286 90.3559C56.4346 90.0793 56.0405 89.8028 55.6465 89.5263C55.6465 78.191 55.6465 66.8557 55.6465 55.0454C60.5516 55.0454 65.1488 55.0454 70.3004 55.0455Z" fill="#117C5A"/>
<path d="M216.605 114.715C220.647 118.559 224.41 122.125 227.802 125.339C213.803 139.379 200.278 152.944 186.97 166.292C173.901 153.262 160.404 139.805 146.897 126.338C151.238 119.943 156.692 116.264 165.543 116.936C177.705 117.86 189.989 117.167 202.867 117.167C202.867 112.103 202.867 107.253 202.867 100.711C208.128 106.076 212.227 110.256 216.605 114.715Z" fill="#494949"/>
<path d="M106.641 125.527C103.434 131.611 99.6719 136.266 91.6861 135.957C78.3574 135.443 64.9944 135.817 50.9658 135.817C50.9658 140.882 50.9658 145.569 50.9658 152.044C42.1318 142.37 34.4954 134.008 26.9446 125.739C39.5097 113.248 53.0638 99.7739 67.158 85.7627C80.0084 98.6869 93.1973 111.952 106.641 125.527Z" fill="#4A4A4A"/>
<path d="M116.834 155.878C120.267 152.457 123.414 149.307 126.565 146.152C133.496 150.579 137.104 156.094 136.377 164.914C135.496 175.611 136.154 186.436 136.181 197.206C136.186 199.204 136.356 201.202 136.477 203.791C140.987 203.791 145.127 203.791 149.708 203.791C141.464 211.647 133.77 218.979 126.297 226.101C113.823 213.588 100.377 200.1 86.4754 186.154C96.1757 176.476 106.362 166.313 116.834 155.878Z" fill="#484848"/>
<path d="M130.091 28.2539C142.816 40.9734 155.259 53.413 167.481 65.6311C153.702 79.4291 140.242 92.9089 126.738 106.432C119.975 102.242 117.055 96.3909 117.607 87.797C118.4 75.4646 117.81 63.0433 117.81 50.2443C112.719 50.2443 108.343 50.2443 104.542 50.2443C112.414 42.6124 120.374 34.8947 128.335 27.1771C127.89 26.5938 127.445 26.0105 127.001 25.4272C127.937 26.2762 128.873 27.1251 130.091 28.2539Z" fill="#474747"/>
<path d="M55.657 196.326C55.5655 178.458 55.4739 160.59 55.7705 142.107C56.3977 141.21 56.6367 140.929 56.8756 140.647C74.7651 140.586 92.6545 140.525 111.2 140.802C112.119 141.419 112.435 141.606 112.805 141.702C112.896 145.083 112.987 148.464 112.606 152.356C111.881 153.574 111.626 154.281 111.372 154.989C100.633 165.206 89.8935 175.424 78.0638 186.679C83.1793 190.766 87.0179 193.833 90.8566 196.9C90.5264 197.363 90.1962 197.825 89.8659 198.287C78.6616 198.287 67.4572 198.287 56.537 197.86C66.0544 197.433 75.2876 197.433 84.5208 197.433C84.5161 197.064 84.5115 196.695 84.5068 196.326C74.8902 196.326 65.2736 196.326 55.657 196.326Z" fill="#127C5A"/>
<path d="M170.03 157.123C170.894 157.862 171.758 158.6 172.864 159.78C173.238 160.399 173.408 160.521 173.618 160.59C174.012 160.898 174.406 161.206 175.069 161.981C175.469 162.628 175.641 162.753 175.853 162.822C177.726 164.612 179.599 166.401 181.75 168.665C182.159 169.32 182.331 169.445 182.542 169.516C183.652 170.563 184.763 171.611 186.082 173.3C186.57 174.466 186.85 174.989 187.13 175.512C187.616 174.694 188.102 173.876 188.588 173.058C188.588 173.058 188.579 172.947 188.844 172.835C189.372 172.523 189.562 172.27 189.681 171.962C191.358 170.174 193.036 168.386 195.555 166.431C197.082 166.272 197.767 166.279 198.451 166.287C198.503 175.958 198.554 185.629 198.013 195.82C180.883 196.341 164.345 196.241 147.809 196.416C143.942 196.457 142.668 195.283 142.71 191.36C142.893 174.453 142.791 157.543 142.793 140.634C145.811 140.578 148.829 140.522 152.54 140.797C153.626 141.254 154.019 141.381 154.412 141.507C157.554 144.539 160.695 147.572 163.998 151.358C165.001 152.667 165.843 153.222 166.684 153.776C166.999 153.775 167.238 153.909 167.454 154.819C168.348 156.014 169.189 156.569 170.03 157.123Z" fill="#107B59"/>
<path d="M158.408 82.5637C160.048 80.7923 161.687 79.0209 163.906 76.992C164.789 76.5126 164.994 76.2213 165.1 75.8608C165.1 75.8608 165.102 75.8573 165.349 75.7359C165.902 75.3896 166.107 75.0945 166.211 74.7292C166.409 74.419 166.606 74.1089 167.318 73.5933C168.135 73.1661 168.34 72.8749 168.446 72.5142C168.639 72.1988 168.832 71.8834 169.541 71.3639C170.362 70.9411 170.57 70.652 170.679 70.2927C171.224 69.6171 171.769 68.9414 172.872 68.0276C173.73 67.5478 173.921 67.2384 174.003 66.8614C174.003 66.8614 173.988 66.3519 174.263 66.0669C174.792 65.5844 175.045 65.387 175.298 65.1896C174.507 65.0261 173.715 64.8627 172.924 64.6992C172.924 64.6992 172.91 64.7028 172.911 64.255C171.93 61.8858 170.949 59.9644 169.382 56.896C179.427 56.896 188.935 56.896 198.443 56.896C198.497 74.3981 198.552 91.9001 198.012 109.922C180.9 110.441 164.38 110.292 147.866 110.541C143.43 110.608 142.128 108.86 142.831 104.99C143.385 101.939 144.276 98.9498 145.018 95.9333C145.212 95.622 145.406 95.3108 146.113 94.7907C146.934 94.36 147.141 94.0671 147.247 93.7032C147.247 93.7032 147.253 93.7066 147.498 93.586C148.049 93.2438 148.256 92.9511 148.362 92.5873C148.362 92.5873 148.369 92.591 148.614 92.4688C149.166 92.1225 149.371 91.8272 149.473 91.4606C149.473 91.4606 149.485 91.4755 149.725 91.3553C150.276 91.0159 150.486 90.7244 150.595 90.3605C150.595 90.3605 150.6 90.3596 150.845 90.2422C151.397 89.9075 151.606 89.6197 151.717 89.2613C151.717 89.2613 151.714 89.2423 151.966 89.124C152.52 88.7828 152.723 88.4912 152.828 88.1309C153.021 87.8156 153.213 87.5003 153.922 86.9813C154.744 86.5591 154.952 86.27 155.061 85.9105C155.602 85.2384 156.144 84.5663 157.237 83.6624C158.093 83.2114 158.299 82.9224 158.408 82.5637Z" fill="#117B59"/>
<path d="M142.306 140.581C142.791 157.543 142.893 174.453 142.71 191.36C142.668 195.284 143.942 196.457 147.809 196.416C164.345 196.241 180.883 196.341 197.936 196.338C197.708 197.047 196.968 198.377 196.22 198.382C177.895 198.497 159.569 198.472 140.582 198.472C140.582 190.903 140.582 183.737 140.582 176.571C140.582 166.183 140.529 155.796 140.637 145.41C140.655 143.778 141.407 142.154 142.306 140.581Z" fill="#157D5D"/>
<path d="M144.652 96.1011C144.276 98.95 143.384 101.939 142.83 104.99C142.127 108.86 143.43 110.608 147.866 110.541C164.38 110.292 180.9 110.441 197.933 110.439C197.678 111.28 196.913 112.852 196.136 112.858C177.759 112.996 159.381 112.965 140.323 112.965C141.592 107.026 137.989 100.65 144.652 96.1011Z" fill="#127D5D"/>
<path d="M198.444 56.4378C188.935 56.896 179.427 56.896 169.382 56.896C170.949 59.9644 171.93 61.8859 172.913 64.2479C169.852 61.8149 166.791 58.9412 163.635 55.9795C175.568 55.9795 187.007 55.9795 198.444 56.4378Z" fill="#127D5D"/>
<path d="M55.5746 196.619C65.2736 196.326 74.8902 196.326 84.5068 196.326C84.5114 196.695 84.5161 197.064 84.5207 197.433C75.2876 197.433 66.0544 197.433 56.2983 197.442C55.681 197.272 55.5866 197.092 55.5746 196.619Z" fill="#017552"/>
<path d="M198.533 165.981C197.767 166.28 197.082 166.272 195.884 166.265C196.156 165.3 196.942 164.334 198.105 162.905C198.334 164.148 198.474 164.911 198.533 165.981Z" fill="#157D5D"/>
<path d="M188.209 173.17C188.102 173.876 187.616 174.694 187.13 175.511C186.85 174.988 186.57 174.466 186.285 173.624C186.797 173.297 187.313 173.29 188.209 173.17Z" fill="#157D5D"/>
<path d="M169.87 156.795C169.189 156.569 168.348 156.014 167.504 155.026C168.238 155.217 168.973 155.842 169.87 156.795Z" fill="#157D5D"/>
<path d="M111.687 154.826C111.627 154.281 111.881 153.574 112.461 152.844C112.526 153.436 112.264 154.049 111.687 154.826Z" fill="#017552"/>
<path d="M166.524 153.448C165.843 153.222 165.001 152.667 164.157 151.679C164.891 151.87 165.627 152.495 166.524 153.448Z" fill="#157D5D"/>
<path d="M172.999 64.9617C173.715 64.8627 174.506 65.0262 175.298 65.1896C175.045 65.387 174.792 65.5844 174.239 65.8131C173.561 65.764 173.271 65.5573 172.999 64.9617Z" fill="#127D5D"/>
<path d="M154.247 141.213C154.019 141.381 153.626 141.254 153.037 140.881C153.254 140.729 153.668 140.824 154.247 141.213Z" fill="#157D5D"/>
<path d="M189.442 172.041C189.563 172.27 189.372 172.523 188.9 172.84C188.727 172.596 188.898 172.317 189.442 172.041Z" fill="#157D5D"/>
<path d="M182.508 169.345C182.331 169.446 182.159 169.32 181.956 168.996C182.144 168.842 182.34 168.949 182.508 169.345Z" fill="#157D5D"/>
<path d="M173.763 66.9985C173.921 67.2384 173.73 67.5477 173.185 67.9203C173.013 67.6687 173.207 67.3635 173.763 66.9985Z" fill="#127D5D"/>
<path d="M175.818 162.651C175.642 162.753 175.469 162.628 175.265 162.305C175.452 162.151 175.648 162.257 175.818 162.651Z" fill="#157D5D"/>
<path d="M173.582 160.421C173.408 160.521 173.238 160.398 173.034 160.079C173.219 159.927 173.414 160.032 173.582 160.421Z" fill="#157D5D"/>
<path d="M170.416 70.3853C170.57 70.6524 170.362 70.9414 169.812 71.2765C169.621 70.9972 169.816 70.692 170.416 70.3853Z" fill="#127D5D"/>
<path d="M154.798 86.0029C154.951 86.2702 154.744 86.5593 154.193 86.8941C154.144 86.7053 154.339 86.4002 154.798 86.0029Z" fill="#127D5D"/>
<path d="M168.183 72.6074C168.34 72.875 168.135 73.1662 167.588 73.5067C167.536 73.3171 167.728 73.0088 168.183 72.6074Z" fill="#127D5D"/>
<path d="M112.812 141.357C112.435 141.605 112.119 141.418 111.716 140.899C111.991 140.777 112.405 140.895 112.812 141.357Z" fill="#017552"/>
<path d="M165.941 74.8188C166.107 75.0945 165.902 75.3896 165.351 75.7347C165.294 75.5394 165.483 75.224 165.941 74.8188Z" fill="#127D5D"/>
<path d="M56.5264 140.621C56.6367 140.929 56.3978 141.21 55.8978 141.598C55.817 141.335 55.9971 140.965 56.5264 140.621Z" fill="#017552"/>
<path d="M164.837 75.9541C164.994 76.2215 164.789 76.5127 164.243 76.8537C164.054 76.5794 164.246 76.2709 164.837 75.9541Z" fill="#127D5D"/>
<path d="M158.146 82.6562C158.299 82.9226 158.093 83.2116 157.545 83.5479C157.355 83.2704 157.549 82.9649 158.146 82.6562Z" fill="#127D5D"/>
<path d="M146.979 93.792C147.141 94.0673 146.934 94.3601 146.38 94.6998C146.326 94.5052 146.518 94.1929 146.979 93.792Z" fill="#127D5D"/>
<path d="M148.094 92.6763C148.256 92.9514 148.049 93.2442 147.496 93.5833C147.442 93.3888 147.634 93.0768 148.094 92.6763Z" fill="#127D5D"/>
<path d="M149.205 91.5503C149.371 91.8274 149.166 92.1227 148.612 92.4655C148.556 92.2693 148.746 91.9545 149.205 91.5503Z" fill="#127D5D"/>
<path d="M150.323 90.4429C150.486 90.7246 150.276 91.0161 149.717 91.35C149.663 91.1515 149.857 90.8383 150.323 90.4429Z" fill="#127D5D"/>
<path d="M151.452 89.3486C151.605 89.6199 151.396 89.9077 150.846 90.2403C150.796 90.0489 150.991 89.7423 151.452 89.3486Z" fill="#127D5D"/>
<path d="M152.565 88.2246C152.723 88.4913 152.52 88.7829 151.975 89.1259C151.922 88.9367 152.112 88.6274 152.565 88.2246Z" fill="#127D5D"/>
</g>
<defs>
<clipPath id="clip0_0_75">
<rect width="251" height="251" fill="white"/>
</clipPath>
</defs>
</svg>
