<svg width="1600" height="1200" viewBox="0 0 1600 1200" fill="none" xmlns="http://www.w3.org/2000/svg">
<g opacity="0.04">
<path d="M1513.14 363.289L1430.76 326.444L1410.8 527.741C1409.27 543.203 1417.8 557.911 1431.99 564.254L1516.29 601.96C1530.48 608.304 1547.13 604.859 1557.63 593.41L1694.38 444.345L1612 407.501L1496.25 533.679L1513.14 363.289Z" fill="black"/>
<rect x="1306.91" y="228" width="72.1951" height="216.585" transform="rotate(78.0685 1306.91 228)" fill="black"/>
<path d="M9.21631 -5.77783L79.1032 12.3318L60.9935 82.2187L165.824 109.383C223.72 124.386 258.492 183.482 243.49 241.378L216.325 346.208L146.438 328.099L173.603 223.268C178.604 203.97 167.013 184.271 147.714 179.27L42.8838 152.106L6.66449 291.879L-63.2224 273.77L9.21631 -5.77783Z" fill="black"/>
<path d="M463 512.303L529.406 483.977L557.732 550.383L657.341 507.895C712.354 484.429 775.973 510.003 799.439 565.016L841.928 664.625L775.521 692.951L733.033 593.341C725.211 575.004 704.004 566.479 685.667 574.301L586.057 616.789L642.709 749.602L576.302 777.928L463 512.303Z" fill="black"/>
<path d="M-52.9453 490.793C-29.7192 435.679 33.7884 409.829 88.9028 433.055L255.225 503.146L227.188 569.675L60.8662 499.584C42.4948 491.842 21.3256 500.458 13.5835 518.83C5.84147 537.201 14.4583 558.37 32.8297 566.112L199.152 636.204L171.115 702.733L4.79331 632.641C-50.321 609.415 -76.1715 545.908 -52.9453 490.793Z" fill="black"/>
<path d="M1178.55 579.955L1112.86 550L1067.93 648.531C1043.12 702.949 1067.11 767.179 1121.53 791.995L1220.06 836.926L1250.02 771.239L1151.49 726.307C1133.35 718.035 1125.35 696.625 1133.62 678.486L1178.55 579.955Z" fill="black"/>
<path d="M111.063 905.189L83.0118 838.667L-16.7719 880.744C-71.881 903.983 -97.717 967.496 -74.4783 1022.61L-32.4008 1122.39L34.1217 1094.34L-7.95575 994.554C-15.702 976.184 -7.08996 955.013 11.2797 947.267L111.063 905.189Z" fill="black"/>
<path d="M813.181 29.501L771.222 88.2515L859.348 151.189C908.018 185.949 975.652 174.672 1010.41 126.001L1073.35 37.8754L1014.6 -4.08306L951.661 84.0427C940.074 100.266 917.53 104.025 901.306 92.4387L813.181 29.501Z" fill="black"/>
<path d="M311.811 853L544.809 950.78C563.192 958.495 571.84 979.651 564.125 998.034L558.723 1010.91C553.467 1023.43 541.625 1031.94 528.078 1032.94L383.402 1043.55L520.823 1101.22L494.283 1164.46L261.285 1066.68C242.902 1058.97 234.254 1037.81 241.968 1019.43L247.37 1006.55C252.627 994.03 264.469 985.516 278.016 984.522L422.692 973.912L285.271 916.242L311.811 853Z" fill="black"/>
<path d="M1363.92 -83.5556L1596.92 14.2243C1615.3 21.9389 1623.95 43.0952 1616.24 61.4782L1610.83 74.3503C1605.58 86.8752 1593.74 95.3892 1580.19 96.3827L1435.51 106.993L1572.93 164.663L1546.39 227.905L1313.4 130.125C1295.01 122.41 1286.36 101.254 1294.08 82.8711L1299.48 69.9989C1304.74 57.474 1316.58 48.9601 1330.13 47.9666L1474.8 37.3567L1337.38 -20.3135L1363.92 -83.5556Z" fill="black"/>
<path fill-rule="evenodd" clip-rule="evenodd" d="M1407.36 891.342C1360.4 854.304 1352.36 786.211 1389.4 739.251C1426.43 692.291 1494.53 684.247 1541.49 721.285L1598.17 765.994C1645.13 803.032 1653.18 871.126 1616.14 918.085L1549.08 1003.11L1407.36 891.342ZM1559.45 873.377C1571.8 857.723 1569.12 835.026 1553.46 822.68L1496.78 777.971C1481.13 765.625 1458.43 768.306 1446.08 783.959C1433.74 799.613 1436.42 822.311 1452.07 834.657L1537.1 901.72L1559.45 873.377Z" fill="black"/>
<path fill-rule="evenodd" clip-rule="evenodd" d="M513.346 262.756C461.315 292.249 395.227 273.978 365.735 221.947C336.242 169.916 354.513 103.828 406.544 74.3355L469.351 38.7346C521.382 9.24188 587.47 27.5127 616.962 79.5436L670.364 173.754L513.346 262.756ZM554.155 115.145C544.324 97.801 522.295 91.7107 504.951 101.542L442.145 137.142C424.801 146.973 418.711 169.003 428.542 186.346C438.372 203.69 460.402 209.78 477.745 199.949L571.956 146.548L554.155 115.145Z" fill="black"/>
<path fill-rule="evenodd" clip-rule="evenodd" d="M892.328 982.628L853 1043.17L1095.17 1200.48L1193.49 1049.13C1226.07 998.972 1211.83 931.902 1161.67 899.321C1111.51 866.74 1044.44 880.987 1011.86 931.142L952.871 1021.96L892.328 982.628ZM1132.95 1009.8C1143.81 993.081 1139.06 970.724 1122.34 959.864C1105.62 949.003 1083.27 953.752 1072.41 970.471L1013.41 1061.28L1073.96 1100.61L1132.95 1009.8Z" fill="black"/>
</g>
</svg>
