<svg width="481" height="191" viewBox="0 0 481 191" fill="none" xmlns="http://www.w3.org/2000/svg">
<path d="M219.939 121.547H191L211.513 183.086C213.089 187.813 217.512 191.001 222.495 191.001H252.111C257.094 191.001 261.517 187.813 263.093 183.086L283.606 121.547H254.667L237.303 173.638L219.939 121.547Z" fill="#3C7EFD"/>
<rect x="382" y="23.1523" width="23.1515" height="69.4545" fill="#3C7EFD"/>
<path d="M0 0H23.1515V23.1515L57.8788 23.1515C77.0582 23.1515 92.6061 38.6994 92.6061 57.8788V92.6061H69.4546V57.8788C69.4546 51.4857 64.2719 46.303 57.8788 46.303H23.1515V92.6061H0V0Z" fill="#3C7EFD"/>
<path d="M0 156.274C0 137.095 15.548 121.547 34.7273 121.547H92.6061V144.698L34.7273 144.698C28.3342 144.698 23.1515 149.881 23.1515 156.274C23.1515 162.667 28.3342 167.85 34.7273 167.85H92.6061V191.001H34.7273C15.548 191.001 0 175.453 0 156.274Z" fill="#3C7EFD"/>
<path d="M480.394 46.3039V23.1523H445.667C426.487 23.1523 410.939 38.7003 410.939 57.8796V92.6069H434.091V57.8796C434.091 51.4865 439.274 46.3039 445.667 46.3039H480.394Z" fill="#3C7EFD"/>
<path d="M283.606 23.1523L364.636 23.1523C371.03 23.1523 376.212 28.335 376.212 34.7281V39.2047C376.212 43.5605 373.767 47.5476 369.885 49.5224L328.421 70.613H376.212V92.6069H295.182C288.789 92.6069 283.606 87.4242 283.606 81.0311L283.606 76.5546C283.606 72.1987 286.051 68.2116 289.934 66.2368L331.397 45.1463L283.606 45.1463V23.1523Z" fill="#3C7EFD"/>
<path fill-rule="evenodd" clip-rule="evenodd" d="M133.121 191.001C113.942 191.001 98.3939 175.453 98.3939 156.274C98.3939 137.095 113.942 121.547 133.121 121.547H156.273C175.452 121.547 191 137.095 191 156.274V191.001H133.121ZM167.848 156.274C167.848 149.881 162.666 144.698 156.273 144.698L133.121 144.698C126.728 144.698 121.545 149.881 121.545 156.274C121.545 162.667 126.728 167.85 133.121 167.85L167.848 167.85V156.274Z" fill="#3C7EFD"/>
<path fill-rule="evenodd" clip-rule="evenodd" d="M133.121 92.6069C113.942 92.6069 98.3939 77.059 98.3939 57.8796C98.3939 38.7003 113.942 23.1523 133.121 23.1523H243.091C262.27 23.1523 277.818 38.7003 277.818 57.8796V92.6069H133.121ZM254.667 57.8796C254.667 51.4865 249.484 46.3039 243.091 46.3039L133.121 46.3039C126.728 46.3039 121.545 51.4865 121.545 57.8796C121.545 64.2727 126.728 69.4554 133.121 69.4554L254.667 69.4554V57.8796Z" fill="#3C7EFD"/>
<path fill-rule="evenodd" clip-rule="evenodd" d="M318.333 191.001C299.154 191.001 283.606 175.453 283.606 156.274C283.606 137.095 299.154 121.547 318.333 121.547H341.485C360.664 121.547 376.212 137.095 376.212 156.274V191.001H318.333ZM353.061 156.274C353.061 149.881 347.878 144.698 341.485 144.698L318.333 144.698C311.94 144.698 306.758 149.881 306.758 156.274C306.758 162.667 311.94 167.85 318.333 167.85L353.061 167.85V156.274Z" fill="#3C7EFD"/>
<path fill-rule="evenodd" clip-rule="evenodd" d="M405.152 98.3945H382V191.001H439.879C459.058 191.001 474.606 175.453 474.606 156.273C474.606 137.094 459.058 121.546 439.879 121.546L405.152 121.546V98.3945ZM439.879 167.849C446.272 167.849 451.455 162.666 451.455 156.273C451.455 149.88 446.272 144.698 439.879 144.698L405.152 144.698V167.849L439.879 167.849Z" fill="#3C7EFD"/>
</svg>
