<svg width="200" height="200" viewBox="0 0 200 200" fill="none" xmlns="http://www.w3.org/2000/svg">
<rect width="200" height="200" rx="50" fill="#0079FF"/>
<path d="M17.5 60H37.5V80L67.5 80C84.0685 80 97.5 93.4315 97.5 110V140H77.5V110C77.5 104.477 73.0228 100 67.5 100H37.5V140H17.5V60Z" fill="white"/>
<path d="M102.5 110C102.5 93.4315 115.931 80 132.5 80H182.5V100L132.5 100C126.977 100 122.5 104.477 122.5 110C122.5 115.523 126.977 120 132.5 120H182.5V140H132.5C115.931 140 102.5 126.569 102.5 110Z" fill="white"/>
</svg>
